{
  "accessors": [
    {
      "bufferView": 1,
      "componentType": 5126,
      "count": 65532,
      "max": [
        1.8412699699401855,
        1.7432399988174438,
        5.6624298095703125
      ],
      "min": [
        -1.7432399988174438,
        -1.9179699420928955,
        -6.4194002151489258
      ],
      "type": "VEC3"
    },
    {
      "bufferView": 1,
      "byteOffset": 786384,
      "componentType": 5126,
      "count": 65532,
      "max": [
        1,
        1,
        0.94455242156982422
      ],
      "min": [
        -1,
        -1,
        -0.88949286937713623
      ],
      "type": "VEC3"
    },
    {
      "bufferView": 0,
      "componentType": 5125,
      "count": 373449,
      "max": [
        65531
      ],
      "min": [
        0
      ],
      "type": "SCALAR"
    },
    {
      "bufferView": 1,
      "byteOffset": 1572768,
      "componentType": 5126,
      "count": 65532,
      "max": [
        1.9297399520874023,
        1.9297399520874023,
        5.7280697822570801
      ],
      "min": [
        -1.9297399520874023,
        -1.9297399520874023,
        -6.4194002151489258
      ],
      "type": "VEC3"
    },
    {
      "bufferView": 1,
      "byteOffset": 2359152,
      "componentType": 5126,
      "count": 65532,
      "max": [
        1,
        1,
        0.99999862909317017
      ],
      "min": [
        -1,
        -1,
        -0.88949489593505859
      ],
      "type": "VEC3"
    },
    {
      "bufferView": 0,
      "byteOffset": 1493796,
      "componentType": 5125,
      "count": 369150,
      "max": [
        65531
      ],
      "min": [
        0
      ],
      "type": "SCALAR"
    },
    {
      "bufferView": 1,
      "byteOffset": 3145536,
      "componentType": 5126,
      "count": 59342,
      "max": [
        1.9297399520874023,
        1.9297399520874023,
        5.7280697822570801
      ],
      "min": [
        -1.929129958152771,
        -1.9297399520874023,
        -6.4194002151489258
      ],
      "type": "VEC3"
    },
    {
      "bufferView": 1,
      "byteOffset": 3857640,
      "componentType": 5126,
      "count": 59342,
      "max": [
        0.99999803304672241,
        0.99999767541885376,
        0.99999874830245972
      ],
      "min": [
        -1,
        -1,
        -0.88949286937713623
      ],
      "type": "VEC3"
    },
    {
      "bufferView": 0,
      "byteOffset": 2970396,
      "componentType": 5125,
      "count": 318765,
      "max": [
        59341
      ],
      "min": [
        0
      ],
      "type": "SCALAR"
    }
  ],
  "asset": {
    "extras": {
      "author": "Doge282 (https://sketchfab.com/doge344)",
      "license": "CC-BY-4.0 (http://creativecommons.org/licenses/by/4.0/)",
      "source": "https://sketchfab.com/models/510f4beb766442f58aac922839861999",
      "title": "Vase"
    },
    "generator": "Sketchfab-3.20.7",
    "version": "2.0"
  },
  "bufferViews": [
    {
      "buffer": 0,
      "byteLength": 4245456,
      "byteOffset": 0,
      "name": "floatBufferViews",
      "target": 34963
    },
    {
      "buffer": 0,
      "byteLength": 4569744,
      "byteOffset": 4245456,
      "byteStride": 12,
      "name": "floatBufferViews",
      "target": 34962
    }
  ],
  "buffers": [
    {
      "byteLength": 8815200,
      "uri": "scene.bin"
    }
  ],
  "extensionsRequired": [
    "KHR_materials_pbrSpecularGlossiness"
  ],
  "extensionsUsed": [
    "KHR_materials_pbrSpecularGlossiness"
  ],
  "materials": [
    {
      "doubleSided": true,
      "emissiveFactor": [
        0,
        0,
        0
      ],
      "extensions": {
        "KHR_materials_pbrSpecularGlossiness": {
          "diffuseFactor": [
            1,
            0.98996368810000002,
            0.98996368810000002,
            1
          ],
          "glossinessFactor": 0.94161421099999998,
          "specularFactor": [
            0.069357137200000002,
            0.069357137200000002,
            0.069357137200000002
          ]
        }
      },
      "name": "Material.002"
    }
  ],
  "meshes": [
    {
      "name": "Cylinder_0",
      "primitives": [
        {
          "attributes": {
            "NORMAL": 1,
            "POSITION": 0
          },
          "indices": 2,
          "material": 0,
          "mode": 4
        }
      ]
    },
    {
      "name": "Cylinder_0",
      "primitives": [
        {
          "attributes": {
            "NORMAL": 4,
            "POSITION": 3
          },
          "indices": 5,
          "material": 0,
          "mode": 4
        }
      ]
    },
    {
      "name": "Cylinder_0",
      "primitives": [
        {
          "attributes": {
            "NORMAL": 7,
            "POSITION": 6
          },
          "indices": 8,
          "material": 0,
          "mode": 4
        }
      ]
    }
  ],
  "nodes": [
    {
      "children": [
        1
      ],
      "name": "RootNode (gltf orientation matrix)",
      "rotation": [
        -0.70710678118654746,
        -0,
        -0,
        0.70710678118654757
      ]
    },
    {
      "children": [
        2
      ],
      "name": "RootNode (model correction matrix)"
    },
    {
      "children": [
        3
      ],
      "name": "Root"
    },
    {
      "children": [
        4,
        5,
        6
      ],
      "matrix": [
        0.5,
        0,
        0,
        0,
        0,
        0.5,
        0,
        0,
        0,
        0,
        0.15000000000000002,
        0,
        0,
        0,
        0,
        1
      ],
      "name": "Cylinder"
    },
    {
      "mesh": 0,
      "name": "Cylinder_0"
    },
    {
      "mesh": 1,
      "name": "Cylinder_0"
    },
    {
      "mesh": 2,
      "name": "Cylinder_0"
    }
  ],
  "scene": 0,
  "scenes": [
    {
      "name": "OSG_Scene",
      "nodes": [
        0
      ]
    }
  ]
}

