{
  "accessors": [
    {
      "bufferView": 2,
      "componentType": 5126,
      "count": 2951,
      "max": [
        2.3898897171020508,
        1.1784687042236328,
        1
      ],
      "min": [
        -1.4256198406219482,
        -0.056734859943389893,
        -1
      ],
      "type": "VEC3"
    },
    {
      "bufferView": 2,
      "byteOffset": 35412,
      "componentType": 5126,
      "count": 2951,
      "max": [
        1,
        1,
        1
      ],
      "min": [
        -1,
        -1,
        -1
      ],
      "type": "VEC3"
    },
    {
      "bufferView": 3,
      "componentType": 5126,
      "count": 2951,
      "max": [
        1,
        1,
        1,
        1
      ],
      "min": [
        -1,
        -1,
        -0.99957776069641113,
        -1
      ],
      "type": "VEC4"
    },
    {
      "bufferView": 1,
      "componentType": 5126,
      "count": 2951,
      "max": [
        1.3148670196533203,
        1
      ],
      "min": [
        -1.0803341865539551e-06,
        -0.015792727470397949
      ],
      "type": "VEC2"
    },
    {
      "bufferView": 0,
      "componentType": 5125,
      "count": 6048,
      "max": [
        2950
      ],
      "min": [
        0
      ],
      "type": "SCALAR"
    },
    {
      "bufferView": 2,
      "byteOffset": 70824,
      "componentType": 5126,
      "count": 432,
      "max": [
        1.2188836336135864,
        1.0995762348175049,
        0.052582450211048126
      ],
      "min": [
        1.11371910572052,
        -0.013158872723579407,
        -0.052582167088985443
      ],
      "type": "VEC3"
    },
    {
      "bufferView": 2,
      "byteOffset": 76008,
      "componentType": 5126,
      "count": 432,
      "max": [
        0.99957734346389771,
        0,
        0.99957704544067383
      ],
      "min": [
        -0.99957728385925293,
        0,
        -0.99957704544067383
      ],
      "type": "VEC3"
    },
    {
      "bufferView": 3,
      "byteOffset": 47216,
      "componentType": 5126,
      "count": 432,
      "max": [
        0.99957704544067383,
        0,
        0.99957734346389771,
        -1
      ],
      "min": [
        -0.99957704544067383,
        0,
        -0.99957734346389771,
        -1
      ],
      "type": "VEC4"
    },
    {
      "bufferView": 1,
      "byteOffset": 23608,
      "componentType": 5126,
      "count": 432,
      "max": [
        1,
        0.5
      ],
      "min": [
        -1.0803341865539551e-06,
        0
      ],
      "type": "VEC2"
    },
    {
      "bufferView": 0,
      "byteOffset": 24192,
      "componentType": 5125,
      "count": 648,
      "max": [
        431
      ],
      "min": [
        0
      ],
      "type": "SCALAR"
    },
    {
      "bufferView": 2,
      "byteOffset": 81192,
      "componentType": 5126,
      "count": 156,
      "max": [
        2.6955342292785645,
        1.2009758949279785,
        1.0926159620285034
      ],
      "min": [
        -1.5521630048751831,
        1.1752141714096069,
        -1.0992723703384399
      ],
      "type": "VEC3"
    },
    {
      "bufferView": 2,
      "byteOffset": 83064,
      "componentType": 5126,
      "count": 156,
      "max": [
        0.53194469213485718,
        1,
        0.77272593975067139
      ],
      "min": [
        -0.53194350004196167,
        -1,
        -0.77272593975067139
      ],
      "type": "VEC3"
    },
    {
      "bufferView": 3,
      "byteOffset": 54128,
      "componentType": 5126,
      "count": 156,
      "max": [
        1,
        0.77270311117172241,
        0.63472104072570801,
        1
      ],
      "min": [
        -1,
        -2.626569717278926e-08,
        -0.93440109491348267,
        -1
      ],
      "type": "VEC4"
    },
    {
      "bufferView": 1,
      "byteOffset": 27064,
      "componentType": 5126,
      "count": 156,
      "max": [
        0.875,
        1
      ],
      "min": [
        0.125,
        0
      ],
      "type": "VEC2"
    },
    {
      "bufferView": 0,
      "byteOffset": 26784,
      "componentType": 5125,
      "count": 300,
      "max": [
        155
      ],
      "min": [
        0
      ],
      "type": "SCALAR"
    }
  ],
  "asset": {
    "extras": {
      "author": "MakishiPrime (https://sketchfab.com/MakishiPrime)",
      "license": "CC-BY-4.0 (http://creativecommons.org/licenses/by/4.0/)",
      "source": "https://sketchfab.com/3d-models/modern-table-25d1857f12f44b6e9c01edde0e0b2ec5",
      "title": "Modern table"
    },
    "generator": "Sketchfab-6.34.0",
    "version": "2.0"
  },
  "bufferViews": [
    {
      "buffer": 0,
      "byteLength": 27984,
      "byteOffset": 0,
      "name": "floatBufferViews",
      "target": 34963
    },
    {
      "buffer": 0,
      "byteLength": 28312,
      "byteOffset": 27984,
      "byteStride": 8,
      "name": "floatBufferViews",
      "target": 34962
    },
    {
      "buffer": 0,
      "byteLength": 84936,
      "byteOffset": 56296,
      "byteStride": 12,
      "name": "floatBufferViews",
      "target": 34962
    },
    {
      "buffer": 0,
      "byteLength": 56624,
      "byteOffset": 141232,
      "byteStride": 16,
      "name": "floatBufferViews",
      "target": 34962
    }
  ],
  "buffers": [
    {
      "byteLength": 197856,
      "uri": "scene.bin"
    }
  ],
  "materials": [
    {
      "doubleSided": true,
      "emissiveFactor": [
        0,
        0,
        0
      ],
      "name": "WoodFineDark004_3K.001",
      "pbrMetallicRoughness": {
        "baseColorFactor": [
          1,
          1,
          1,
          1
        ],
        "metallicFactor": 0,
        "roughnessFactor": 1
      }
    },
    {
      "doubleSided": true,
      "emissiveFactor": [
        0,
        0,
        0
      ],
      "name": "Iron_brushed",
      "pbrMetallicRoughness": {
        "baseColorFactor": [
          1,
          1,
          1,
          1
        ],
        "metallicFactor": 1,
        "roughnessFactor": 1
      }
    },
    {
      "doubleSided": true,
      "emissiveFactor": [
        0,
        0,
        0
      ],
      "name": "steel_dark_used",
      "pbrMetallicRoughness": {
        "baseColorFactor": [
          1,
          1,
          1,
          1
        ],
        "metallicFactor": 1,
        "roughnessFactor": 1
      }
    }
  ],
  "meshes": [
    {
      "primitives": [
        {
          "attributes": {
            "NORMAL": 1,
            "POSITION": 0,
            "TANGENT": 2,
            "TEXCOORD_0": 3
          },
          "indices": 4,
          "material": 0,
          "mode": 4
        }
      ]
    },
    {
      "primitives": [
        {
          "attributes": {
            "NORMAL": 6,
            "POSITION": 5,
            "TANGENT": 7,
            "TEXCOORD_0": 8
          },
          "indices": 9,
          "material": 1,
          "mode": 4
        }
      ]
    },
    {
      "primitives": [
        {
          "attributes": {
            "NORMAL": 11,
            "POSITION": 10,
            "TANGENT": 12,
            "TEXCOORD_0": 13
          },
          "indices": 14,
          "material": 2,
          "mode": 4
        }
      ]
    }
  ],
  "nodes": [
    {
      "children": [
        1
      ],
      "name": "RootNode (gltf orientation matrix)",
      "rotation": [
        -0.70710678118654746,
        -0,
        -0,
        0.70710678118654757
      ]
    },
    {
      "children": [
        2
      ],
      "name": "RootNode (model correction matrix)"
    },
    {
      "children": [
        3
      ],
      "name": "root"
    },
    {
      "children": [
        4
      ],
      "matrix": [
        1,
        0,
        0,
        0,
        0,
        2.2204460492503131e-16,
        1,
        0,
        0,
        -1,
        2.2204460492503131e-16,
        0,
        0,
        0,
        0,
        1
      ],
      "name": "GLTF_SceneRootNode"
    },
    {
      "children": [
        5,
        6,
        7
      ],
      "matrix": [
        7.4699740409851074,
        0,
        0,
        0,
        0,
        7.4699740409851074,
        0,
        0,
        0,
        0,
        7.4699740409851074,
        0,
        -1.0719060897827148,
        2.2971341609954834,
        0.08213043212890625,
        1
      ],
      "name": "Cube.001_0"
    },
    {
      "mesh": 0,
      "name": ""
    },
    {
      "mesh": 1,
      "name": ""
    },
    {
      "mesh": 2,
      "name": ""
    }
  ],
  "scene": 0,
  "scenes": [
    {
      "name": "OSG_Scene",
      "nodes": [
        0
      ]
    }
  ]
}

