{
  "accessors": [
    {
      "bufferView": 1,
      "componentType": 5126,
      "count": 65532,
      "max": [
        218.3851318359375,
        270.92367553710938,
        306.71127319335938
      ],
      "min": [
        -218.38507080078125,
        -299.323486328125,
        -290.610107421875
      ],
      "type": "VEC3"
    },
    {
      "bufferView": 1,
      "byteOffset": 786384,
      "componentType": 5126,
      "count": 65532,
      "max": [
        1,
        0.99999821186065674,
        0.99999982118606567
      ],
      "min": [
        -1,
        -1,
        -0.99999743700027466
      ],
      "type": "VEC3"
    },
    {
      "bufferView": 2,
      "componentType": 5126,
      "count": 65532,
      "max": [
        1,
        0.99998056888580322,
        0.99987083673477173,
        1
      ],
      "min": [
        -1,
        -0.99998420476913452,
        -0.99986964464187622,
        -1
      ],
      "type": "VEC4"
    },
    {
      "bufferView": 0,
      "componentType": 5125,
      "count": 345084,
      "max": [
        65531
      ],
      "min": [
        0
      ],
      "type": "SCALAR"
    },
    {
      "bufferView": 1,
      "byteOffset": 1572768,
      "componentType": 5126,
      "count": 11856,
      "max": [
        218.30142211914062,
        270.26907348632812,
        306.38919067382812
      ],
      "min": [
        -3.0517578125e-05,
        -299.323486328125,
        -289.94277954101562
      ],
      "type": "VEC3"
    },
    {
      "bufferView": 1,
      "byteOffset": 1715040,
      "componentType": 5126,
      "count": 11856,
      "max": [
        0.99999988079071045,
        0.99992382526397705,
        0.99998974800109863
      ],
      "min": [
        -0.99354451894760132,
        -0.99997836351394653,
        -0.99985867738723755
      ],
      "type": "VEC3"
    },
    {
      "bufferView": 2,
      "byteOffset": 1048512,
      "componentType": 5126,
      "count": 11856,
      "max": [
        1,
        0.97041738033294678,
        0.99684923887252808,
        1
      ],
      "min": [
        -1,
        -0.9962916374206543,
        -0.99902421236038208,
        -1
      ],
      "type": "VEC4"
    },
    {
      "bufferView": 0,
      "byteOffset": 1380336,
      "componentType": 5125,
      "count": 51252,
      "max": [
        11855
      ],
      "min": [
        0
      ],
      "type": "SCALAR"
    },
    {
      "bufferView": 1,
      "byteOffset": 1857312,
      "componentType": 5126,
      "count": 1789,
      "max": [
        225.00714111328125,
        213.34408569335938,
        26.402435302734375
      ],
      "min": [
        -310.73306274414062,
        -202.99632263183594,
        -383.20654296875
      ],
      "type": "VEC3"
    },
    {
      "bufferView": 1,
      "byteOffset": 1878780,
      "componentType": 5126,
      "count": 1789,
      "max": [
        1,
        1,
        1
      ],
      "min": [
        -1,
        -1,
        -1
      ],
      "type": "VEC3"
    },
    {
      "bufferView": 0,
      "byteOffset": 1585344,
      "componentType": 5125,
      "count": 2664,
      "max": [
        1788
      ],
      "min": [
        0
      ],
      "type": "SCALAR"
    },
    {
      "bufferView": 1,
      "byteOffset": 1900248,
      "componentType": 5126,
      "count": 11167,
      "max": [
        8.3053779602050781,
        459.74099731445312,
        5.000030517578125
      ],
      "min": [
        -391.37567138671875,
        -8.3053779602050781,
        0
      ],
      "type": "VEC3"
    },
    {
      "bufferView": 1,
      "byteOffset": 2034252,
      "componentType": 5126,
      "count": 11167,
      "max": [
        1,
        1,
        1
      ],
      "min": [
        -1,
        -1,
        -1
      ],
      "type": "VEC3"
    },
    {
      "bufferView": 0,
      "byteOffset": 1596000,
      "componentType": 5125,
      "count": 12048,
      "max": [
        11166
      ],
      "min": [
        0
      ],
      "type": "SCALAR"
    }
  ],
  "asset": {
    "extras": {
      "author": "Zuo Modern (https://sketchfab.com/zuo)",
      "license": "CC-BY-NC-ND-4.0 (http://creativecommons.org/licenses/by-nc-nd/4.0/)",
      "source": "https://sketchfab.com/models/ceedfb78f520424d9233d83c50cd4061",
      "title": "Anjou Dining Chair White - 100121"
    },
    "generator": "Sketchfab-3.27.1",
    "version": "2.0"
  },
  "bufferViews": [
    {
      "buffer": 0,
      "byteLength": 1644192,
      "byteOffset": 0,
      "name": "floatBufferViews",
      "target": 34963
    },
    {
      "buffer": 0,
      "byteLength": 2168256,
      "byteOffset": 1644192,
      "byteStride": 12,
      "name": "floatBufferViews",
      "target": 34962
    },
    {
      "buffer": 0,
      "byteLength": 1238208,
      "byteOffset": 3812448,
      "byteStride": 16,
      "name": "floatBufferViews",
      "target": 34962
    }
  ],
  "buffers": [
    {
      "byteLength": 5050656,
      "uri": "scene.bin"
    }
  ],
  "materials": [
    {
      "doubleSided": true,
      "emissiveFactor": [
        0,
        0,
        0
      ],
      "name": "cgaxis_models_07_28_012a",
      "pbrMetallicRoughness": {
        "baseColorFactor": [
          1,
          1,
          1,
          1
        ],
        "metallicFactor": 0,
        "roughnessFactor": 0.59999999999999998
      }
    },
    {
      "doubleSided": true,
      "emissiveFactor": [
        0,
        0,
        0
      ],
      "name": "Clean_Chrome_Polished",
      "pbrMetallicRoughness": {
        "baseColorFactor": [
          1,
          1,
          1,
          1
        ],
        "metallicFactor": 1,
        "roughnessFactor": 0.16530402799999999
      }
    },
    {
      "doubleSided": true,
      "emissiveFactor": [
        0,
        0,
        0
      ],
      "name": "PVC_Fb_Black",
      "pbrMetallicRoughness": {
        "baseColorFactor": [
          1,
          1,
          1,
          1
        ],
        "metallicFactor": 0,
        "roughnessFactor": 0.59999999999999998
      }
    }
  ],
  "meshes": [
    {
      "name": "Plane001_cgaxis_models_07_28_012a_0",
      "primitives": [
        {
          "attributes": {
            "NORMAL": 1,
            "POSITION": 0,
            "TANGENT": 2
          },
          "indices": 3,
          "material": 0,
          "mode": 4
        }
      ]
    },
    {
      "name": "Plane001_cgaxis_models_07_28_012a_0",
      "primitives": [
        {
          "attributes": {
            "NORMAL": 5,
            "POSITION": 4,
            "TANGENT": 6
          },
          "indices": 7,
          "material": 0,
          "mode": 4
        }
      ]
    },
    {
      "name": "Line001_Clean Chrome Polished_0",
      "primitives": [
        {
          "attributes": {
            "NORMAL": 9,
            "POSITION": 8
          },
          "indices": 10,
          "material": 1,
          "mode": 4
        }
      ]
    },
    {
      "name": "Circle001_PVC Fb Black_0",
      "primitives": [
        {
          "attributes": {
            "NORMAL": 12,
            "POSITION": 11
          },
          "indices": 13,
          "material": 2,
          "mode": 4
        }
      ]
    }
  ],
  "nodes": [
    {
      "children": [
        1
      ],
      "name": "RootNode (gltf orientation matrix)",
      "rotation": [
        -0.70710678118654746,
        -0,
        -0,
        0.70710678118654757
      ]
    },
    {
      "children": [
        2
      ],
      "name": "RootNode (model correction matrix)"
    },
    {
      "children": [
        3
      ],
      "matrix": [
        1,
        0,
        0,
        0,
        0,
        0,
        1,
        0,
        0,
        -1,
        0,
        0,
        0,
        0,
        0,
        1
      ],
      "name": "b792feb90c2947129907a8be9f1bcb2c.fbx"
    },
    {
      "children": [
        4,
        7,
        9
      ],
      "name": "RootNode"
    },
    {
      "children": [
        5,
        6
      ],
      "matrix": [
        1,
        0,
        0,
        0,
        0,
        0.99999999999998668,
        1.6292068494294582e-07,
        0,
        0,
        -1.6292068494294582e-07,
        0.99999999999998668,
        0,
        -12.310523986816406,
        705.68817138671875,
        3.147125244140625e-05,
        1
      ],
      "name": "Plane001"
    },
    {
      "mesh": 0,
      "name": "Plane001_cgaxis_models_07_28_012a_0"
    },
    {
      "mesh": 1,
      "name": "Plane001_cgaxis_models_07_28_012a_0"
    },
    {
      "children": [
        8
      ],
      "matrix": [
        1.6292068449885733e-07,
        -1.3234889800848443e-23,
        0.99999999999998668,
        0,
        -1.6292068488171135e-07,
        0.99999999999998668,
        2.6543149516178714e-14,
        0,
        -0.99999999999997335,
        -1.6292068488171352e-07,
        1.6292068449885733e-07,
        0,
        -188.77749633789062,
        207.9652099609375,
        70.340126037597656,
        1
      ],
      "name": "Line001"
    },
    {
      "mesh": 2,
      "name": "Line001_Clean Chrome Polished_0"
    },
    {
      "children": [
        10
      ],
      "matrix": [
        1,
        0,
        0,
        0,
        0,
        2.2204460492503131e-16,
        -1,
        0,
        0,
        1,
        2.2204460492503131e-16,
        0,
        181.76080322265625,
        0,
        226.90040588378906,
        1
      ],
      "name": "Circle001"
    },
    {
      "mesh": 3,
      "name": "Circle001_PVC Fb Black_0"
    }
  ],
  "scene": 0,
  "scenes": [
    {
      "name": "OSG_Scene",
      "nodes": [
        0
      ]
    }
  ]
}

