{
  "accessors": [
    {
      "bufferView": 1,
      "componentType": 5126,
      "count": 16214,
      "max": [
        1.0008699893951416,
        1,
        1.0683900117874146
      ],
      "min": [
        -1.0146399736404419,
        -16.314899444580078,
        -1.0800000429153442
      ],
      "type": "VEC3"
    },
    {
      "bufferView": 1,
      "byteOffset": 194568,
      "componentType": 5126,
      "count": 16214,
      "max": [
        1,
        1,
        1
      ],
      "min": [
        -1,
        -1,
        -1
      ],
      "type": "VEC3"
    },
    {
      "bufferView": 0,
      "componentType": 5125,
      "count": 93648,
      "max": [
        16213
      ],
      "min": [
        0
      ],
      "type": "SCALAR"
    }
  ],
  "asset": {
    "extras": {
      "author": "YouniqueĪdeaStudio (https://sketchfab.com/sinnervoncrawsz)",
      "license": "CC-BY-4.0 (http://creativecommons.org/licenses/by/4.0/)",
      "source": "https://sketchfab.com/3d-models/sofa-7ec5a88621b84795beb7b335e7100765",
      "title": "SOFA"
    },
    "generator": "Sketchfab-4.86.1",
    "version": "2.0"
  },
  "bufferViews": [
    {
      "buffer": 0,
      "byteLength": 374592,
      "byteOffset": 0,
      "name": "floatBufferViews",
      "target": 34963
    },
    {
      "buffer": 0,
      "byteLength": 389136,
      "byteOffset": 374592,
      "byteStride": 12,
      "name": "floatBufferViews",
      "target": 34962
    }
  ],
  "buffers": [
    {
      "byteLength": 763728,
      "uri": "scene.bin"
    }
  ],
  "materials": [
    {
      "doubleSided": true,
      "emissiveFactor": [
        0,
        0,
        0
      ],
      "name": "Root",
      "pbrMetallicRoughness": {
        "baseColorFactor": [
          0.98148508710000004,
          0.99002237969999995,
          0.78017539339999997,
          1
        ],
        "metallicFactor": 0,
        "roughnessFactor": 0.3666666985
      }
    }
  ],
  "meshes": [
    {
      "name": "SOFA.002_0",
      "primitives": [
        {
          "attributes": {
            "NORMAL": 1,
            "POSITION": 0
          },
          "indices": 2,
          "material": 0,
          "mode": 4
        }
      ]
    }
  ],
  "nodes": [
    {
      "children": [
        1
      ],
      "name": "RootNode (gltf orientation matrix)",
      "rotation": [
        -0.70710678118654746,
        -0,
        -0,
        0.70710678118654757
      ]
    },
    {
      "children": [
        2
      ],
      "name": "RootNode (model correction matrix)"
    },
    {
      "children": [
        3,
        5
      ],
      "name": "Root"
    },
    {
      "children": [
        4
      ],
      "matrix": [
        -0.29086000000000006,
        0.95517000000000007,
        -0.05519000000000001,
        0,
        -0.77110000000000001,
        -0.19988000000000003,
        0.60452000000000006,
        0,
        0.56639000000000006,
        0.21839000000000003,
        0.7946700000000001,
        0,
        4.0762500000000008,
        1.00545,
        5.9038600000000008,
        1
      ],
      "name": "Lamp"
    },
    {
      "name": "Lamp"
    },
    {
      "children": [
        6
      ],
      "matrix": [
        0.40000000000000002,
        0,
        0,
        0,
        0,
        0.15000000000000002,
        0,
        0,
        0,
        0,
        0.25,
        0,
        0,
        1.2136699999999998,
        0,
        1
      ],
      "name": "SOFA.002"
    },
    {
      "mesh": 0,
      "name": "SOFA.002_0"
    }
  ],
  "scene": 0,
  "scenes": [
    {
      "name": "OSG_Scene",
      "nodes": [
        0
      ]
    }
  ]
}

