{
  "accessors": [
    {
      "bufferView": 1,
      "componentType": 5126,
      "count": 65532,
      "max": [
        433.84133911132812,
        291.58392333984375,
        956.738525390625
      ],
      "min": [
        -220.06623840332031,
        -311.40875244140625,
        544.86273193359375
      ],
      "type": "VEC3"
    },
    {
      "bufferView": 1,
      "byteOffset": 786384,
      "componentType": 5126,
      "count": 65532,
      "max": [
        0.99991685152053833,
        0.99902105331420898,
        0.99911963939666748
      ],
      "min": [
        -0.99993366003036499,
        -0.99998641014099121,
        -0.99999260902404785
      ],
      "type": "VEC3"
    },
    {
      "bufferView": 0,
      "componentType": 5125,
      "count": 341196,
      "max": [
        65531
      ],
      "min": [
        0
      ],
      "type": "SCALAR"
    },
    {
      "bufferView": 1,
      "byteOffset": 1572768,
      "componentType": 5126,
      "count": 65532,
      "max": [
        392.9681396484375,
        293.24658203125,
        944.26788330078125
      ],
      "min": [
        -220.71441650390625,
        -309.9857177734375,
        544.90838623046875
      ],
      "type": "VEC3"
    },
    {
      "bufferView": 1,
      "byteOffset": 2359152,
      "componentType": 5126,
      "count": 65532,
      "max": [
        0.93376421928405762,
        0.99945694208145142,
        0.98408615589141846
      ],
      "min": [
        -0.9999883770942688,
        -0.99997055530548096,
        -0.99999690055847168
      ],
      "type": "VEC3"
    },
    {
      "bufferView": 0,
      "byteOffset": 1364784,
      "componentType": 5125,
      "count": 356961,
      "max": [
        65531
      ],
      "min": [
        0
      ],
      "type": "SCALAR"
    },
    {
      "bufferView": 1,
      "byteOffset": 3145536,
      "componentType": 5126,
      "count": 65532,
      "max": [
        433.8299560546875,
        339.06491088867188,
        965.71490478515625
      ],
      "min": [
        -218.75141906738281,
        -311.2880859375,
        552.572265625
      ],
      "type": "VEC3"
    },
    {
      "bufferView": 1,
      "byteOffset": 3931920,
      "componentType": 5126,
      "count": 65532,
      "max": [
        0.99899333715438843,
        0.99997889995574951,
        0.9995657205581665
      ],
      "min": [
        -0.99999815225601196,
        -0.99991244077682495,
        -0.99998915195465088
      ],
      "type": "VEC3"
    },
    {
      "bufferView": 0,
      "byteOffset": 2792628,
      "componentType": 5125,
      "count": 346839,
      "max": [
        65531
      ],
      "min": [
        0
      ],
      "type": "SCALAR"
    },
    {
      "bufferView": 1,
      "byteOffset": 4718304,
      "componentType": 5126,
      "count": 65532,
      "max": [
        421.7952880859375,
        367.87283325195312,
        985.63916015625
      ],
      "min": [
        -217.34539794921875,
        -284.21554565429688,
        570.79986572265625
      ],
      "type": "VEC3"
    },
    {
      "bufferView": 1,
      "byteOffset": 5504688,
      "componentType": 5126,
      "count": 65532,
      "max": [
        0.99715989828109741,
        0.99999511241912842,
        0.99915194511413574
      ],
      "min": [
        -0.99985456466674805,
        -0.99999403953552246,
        -0.99999922513961792
      ],
      "type": "VEC3"
    },
    {
      "bufferView": 0,
      "byteOffset": 4179984,
      "componentType": 5125,
      "count": 351708,
      "max": [
        65531
      ],
      "min": [
        0
      ],
      "type": "SCALAR"
    },
    {
      "bufferView": 1,
      "byteOffset": 6291072,
      "componentType": 5126,
      "count": 65532,
      "max": [
        396.36297607421875,
        374.34539794921875,
        985.63916015625
      ],
      "min": [
        -211.12548828125,
        -306.864990234375,
        544.94635009765625
      ],
      "type": "VEC3"
    },
    {
      "bufferView": 1,
      "byteOffset": 7077456,
      "componentType": 5126,
      "count": 65532,
      "max": [
        0.99994099140167236,
        0.99999511241912842,
        0.99988895654678345
      ],
      "min": [
        -0.99279934167861938,
        -0.99971866607666016,
        -0.99999743700027466
      ],
      "type": "VEC3"
    },
    {
      "bufferView": 0,
      "byteOffset": 5586816,
      "componentType": 5125,
      "count": 350865,
      "max": [
        65531
      ],
      "min": [
        0
      ],
      "type": "SCALAR"
    },
    {
      "bufferView": 1,
      "byteOffset": 7863840,
      "componentType": 5126,
      "count": 65532,
      "max": [
        426.1412353515625,
        358.243896484375,
        977.4063720703125
      ],
      "min": [
        -155.85379028320312,
        -305.46743774414062,
        545.68145751953125
      ],
      "type": "VEC3"
    },
    {
      "bufferView": 1,
      "byteOffset": 8650224,
      "componentType": 5126,
      "count": 65532,
      "max": [
        0.99634414911270142,
        0.99994844198226929,
        0.99991327524185181
      ],
      "min": [
        -0.99145293235778809,
        -0.99998271465301514,
        -0.99999690055847168
      ],
      "type": "VEC3"
    },
    {
      "bufferView": 0,
      "byteOffset": 6990276,
      "componentType": 5125,
      "count": 334887,
      "max": [
        65531
      ],
      "min": [
        0
      ],
      "type": "SCALAR"
    },
    {
      "bufferView": 1,
      "byteOffset": 9436608,
      "componentType": 5126,
      "count": 65532,
      "max": [
        434.3106689453125,
        369.24530029296875,
        981.0487060546875
      ],
      "min": [
        -192.30012512207031,
        -311.27444458007812,
        556.43450927734375
      ],
      "type": "VEC3"
    },
    {
      "bufferView": 1,
      "byteOffset": 10222992,
      "componentType": 5126,
      "count": 65532,
      "max": [
        0.99997490644454956,
        0.99994117021560669,
        0.9998248815536499
      ],
      "min": [
        -0.98857665061950684,
        -0.99966627359390259,
        -0.99999517202377319
      ],
      "type": "VEC3"
    },
    {
      "bufferView": 0,
      "byteOffset": 8329824,
      "componentType": 5125,
      "count": 334617,
      "max": [
        65531
      ],
      "min": [
        0
      ],
      "type": "SCALAR"
    },
    {
      "bufferView": 1,
      "byteOffset": 11009376,
      "componentType": 5126,
      "count": 65532,
      "max": [
        435.0458984375,
        374.34539794921875,
        978.2637939453125
      ],
      "min": [
        -220.20359802246094,
        -311.20703125,
        544.86273193359375
      ],
      "type": "VEC3"
    },
    {
      "bufferView": 1,
      "byteOffset": 11795760,
      "componentType": 5126,
      "count": 65532,
      "max": [
        0.9999995231628418,
        1,
        0.99882453680038452
      ],
      "min": [
        -0.99998915195465088,
        -0.99999427795410156,
        -0.99998915195465088
      ],
      "type": "VEC3"
    },
    {
      "bufferView": 0,
      "byteOffset": 9668292,
      "componentType": 5125,
      "count": 269691,
      "max": [
        65531
      ],
      "min": [
        0
      ],
      "type": "SCALAR"
    },
    {
      "bufferView": 1,
      "byteOffset": 12582144,
      "componentType": 5126,
      "count": 11906,
      "max": [
        434.6494140625,
        373.584228515625,
        980.5411376953125
      ],
      "min": [
        -220.24400329589844,
        -311.27835083007812,
        545.2362060546875
      ],
      "type": "VEC3"
    },
    {
      "bufferView": 1,
      "byteOffset": 12725016,
      "componentType": 5126,
      "count": 11906,
      "max": [
        0.99997490644454956,
        0.99918258190155029,
        0.9994964599609375
      ],
      "min": [
        -0.99986022710800171,
        -0.99960362911224365,
        -0.99995297193527222
      ],
      "type": "VEC3"
    },
    {
      "bufferView": 0,
      "byteOffset": 10747056,
      "componentType": 5125,
      "count": 25968,
      "max": [
        11905
      ],
      "min": [
        0
      ],
      "type": "SCALAR"
    }
  ],
  "asset": {
    "extras": {
      "author": "peel-3d.com (https://sketchfab.com/peel-3d.com)",
      "license": "CC-BY-4.0 (http://creativecommons.org/licenses/by/4.0/)",
      "source": "https://sketchfab.com/models/002823d4334b42cc9a5bb9be0884c71a",
      "title": "Leather Bean Chair with peel 3d"
    },
    "generator": "Sketchfab-3.18.6",
    "version": "2.0"
  },
  "bufferViews": [
    {
      "buffer": 0,
      "byteLength": 10850928,
      "byteOffset": 0,
      "name": "floatBufferViews",
      "target": 34963
    },
    {
      "buffer": 0,
      "byteLength": 12867888,
      "byteOffset": 10850928,
      "byteStride": 12,
      "name": "floatBufferViews",
      "target": 34962
    }
  ],
  "buffers": [
    {
      "byteLength": 23718816,
      "uri": "scene.bin"
    }
  ],
  "materials": [
    {
      "doubleSided": true,
      "emissiveFactor": [
        0,
        0,
        0
      ],
      "name": "Scene_-_Root",
      "pbrMetallicRoughness": {
        "baseColorFactor": [
          0.5,
          0.5,
          0.5,
          1
        ],
        "metallicFactor": 0,
        "roughnessFactor": 0.59999999999999998
      }
    }
  ],
  "meshes": [
    {
      "primitives": [
        {
          "attributes": {
            "NORMAL": 1,
            "POSITION": 0
          },
          "indices": 2,
          "material": 0,
          "mode": 4
        }
      ]
    },
    {
      "primitives": [
        {
          "attributes": {
            "NORMAL": 4,
            "POSITION": 3
          },
          "indices": 5,
          "material": 0,
          "mode": 4
        }
      ]
    },
    {
      "primitives": [
        {
          "attributes": {
            "NORMAL": 7,
            "POSITION": 6
          },
          "indices": 8,
          "material": 0,
          "mode": 4
        }
      ]
    },
    {
      "primitives": [
        {
          "attributes": {
            "NORMAL": 10,
            "POSITION": 9
          },
          "indices": 11,
          "material": 0,
          "mode": 4
        }
      ]
    },
    {
      "primitives": [
        {
          "attributes": {
            "NORMAL": 13,
            "POSITION": 12
          },
          "indices": 14,
          "material": 0,
          "mode": 4
        }
      ]
    },
    {
      "primitives": [
        {
          "attributes": {
            "NORMAL": 16,
            "POSITION": 15
          },
          "indices": 17,
          "material": 0,
          "mode": 4
        }
      ]
    },
    {
      "primitives": [
        {
          "attributes": {
            "NORMAL": 19,
            "POSITION": 18
          },
          "indices": 20,
          "material": 0,
          "mode": 4
        }
      ]
    },
    {
      "primitives": [
        {
          "attributes": {
            "NORMAL": 22,
            "POSITION": 21
          },
          "indices": 23,
          "material": 0,
          "mode": 4
        }
      ]
    },
    {
      "primitives": [
        {
          "attributes": {
            "NORMAL": 25,
            "POSITION": 24
          },
          "indices": 26,
          "material": 0,
          "mode": 4
        }
      ]
    }
  ],
  "nodes": [
    {
      "children": [
        1
      ],
      "name": "RootNode (gltf orientation matrix)",
      "rotation": [
        -0.70710678118654746,
        -0,
        -0,
        0.70710678118654757
      ]
    },
    {
      "children": [
        2
      ],
      "matrix": [
        1,
        0,
        0,
        0,
        0,
        -1,
        0,
        0,
        0,
        0,
        -1,
        0,
        0,
        62.93634033203125,
        1530.5010986328125,
        1
      ],
      "name": "RootNode (model correction matrix)"
    },
    {
      "children": [
        3,
        4,
        5,
        6,
        7,
        8,
        9,
        10,
        11
      ],
      "name": "Bean chair.stl.cleaner.materialmerger.gles"
    },
    {
      "mesh": 0,
      "name": ""
    },
    {
      "mesh": 1,
      "name": ""
    },
    {
      "mesh": 2,
      "name": ""
    },
    {
      "mesh": 3,
      "name": ""
    },
    {
      "mesh": 4,
      "name": ""
    },
    {
      "mesh": 5,
      "name": ""
    },
    {
      "mesh": 6,
      "name": ""
    },
    {
      "mesh": 7,
      "name": ""
    },
    {
      "mesh": 8,
      "name": ""
    }
  ],
  "scene": 0,
  "scenes": [
    {
      "name": "OSG_Scene",
      "nodes": [
        0
      ]
    }
  ]
}

