{
  "accessors": [
    {
      "bufferView": 2,
      "componentType": 5126,
      "count": 8584,
      "max": [
        1.3695323467254639,
        1.0000001192092896,
        1.0000001192092896
      ],
      "min": [
        -1.3695323467254639,
        -1.0171475410461426,
        -1.2651481628417969
      ],
      "type": "VEC3"
    },
    {
      "bufferView": 2,
      "byteOffset": 103008,
      "componentType": 5126,
      "count": 8584,
      "max": [
        1,
        1,
        1
      ],
      "min": [
        -1,
        -1,
        -1
      ],
      "type": "VEC3"
    },
    {
      "bufferView": 1,
      "componentType": 5126,
      "count": 8584,
      "max": [
        1,
        1
      ],
      "min": [
        0,
        0
      ],
      "type": "VEC2"
    },
    {
      "bufferView": 0,
      "componentType": 5125,
      "count": 46848,
      "max": [
        8583
      ],
      "min": [
        0
      ],
      "type": "SCALAR"
    },
    {
      "bufferView": 2,
      "byteOffset": 206016,
      "componentType": 5126,
      "count": 1696,
      "max": [
        0.52995777130126953,
        -1.0170903205871582,
        0.5244109034538269
      ],
      "min": [
        -0.52995777130126953,
        -1.1315000057220459,
        -0.53054553270339966
      ],
      "type": "VEC3"
    },
    {
      "bufferView": 2,
      "byteOffset": 226368,
      "componentType": 5126,
      "count": 1696,
      "max": [
        1,
        1,
        1
      ],
      "min": [
        -1,
        -1,
        -1
      ],
      "type": "VEC3"
    },
    {
      "bufferView": 1,
      "byteOffset": 68672,
      "componentType": 5126,
      "count": 1696,
      "max": [
        0.98551046848297119,
        0.86254841089248657
      ],
      "min": [
        0.61442732810974121,
        0
      ],
      "type": "VEC2"
    },
    {
      "bufferView": 0,
      "byteOffset": 187392,
      "componentType": 5125,
      "count": 7680,
      "max": [
        1695
      ],
      "min": [
        0
      ],
      "type": "SCALAR"
    },
    {
      "bufferView": 2,
      "byteOffset": 246720,
      "componentType": 5126,
      "count": 2488,
      "max": [
        0.31085562705993652,
        0.31085532903671265,
        1.479411244392395
      ],
      "min": [
        -0.31085461378097534,
        -0.31085491180419922,
        4.1076233969761233e-08
      ],
      "type": "VEC3"
    },
    {
      "bufferView": 2,
      "byteOffset": 276576,
      "componentType": 5126,
      "count": 2488,
      "max": [
        1,
        1,
        1
      ],
      "min": [
        -1,
        -1,
        -1
      ],
      "type": "VEC3"
    },
    {
      "bufferView": 1,
      "byteOffset": 82240,
      "componentType": 5126,
      "count": 2488,
      "max": [
        1,
        1
      ],
      "min": [
        0,
        0
      ],
      "type": "VEC2"
    },
    {
      "bufferView": 0,
      "byteOffset": 218112,
      "componentType": 5125,
      "count": 7002,
      "max": [
        2487
      ],
      "min": [
        0
      ],
      "type": "SCALAR"
    },
    {
      "bufferView": 2,
      "byteOffset": 306432,
      "componentType": 5126,
      "count": 72,
      "max": [
        0.1018134206533432,
        0.10181285440921783,
        1.1195915937423706
      ],
      "min": [
        -0.10181175172328949,
        -0.10181231796741486,
        0.20240747928619385
      ],
      "type": "VEC3"
    },
    {
      "bufferView": 2,
      "byteOffset": 307296,
      "componentType": 5126,
      "count": 72,
      "max": [
        1,
        1,
        0
      ],
      "min": [
        -1,
        -1,
        0
      ],
      "type": "VEC3"
    },
    {
      "bufferView": 1,
      "byteOffset": 102144,
      "componentType": 5126,
      "count": 72,
      "max": [
        0.77038514614105225,
        0.77404493093490601
      ],
      "min": [
        0.36286842823028564,
        0
      ],
      "type": "VEC2"
    },
    {
      "bufferView": 0,
      "byteOffset": 246120,
      "componentType": 5125,
      "count": 192,
      "max": [
        71
      ],
      "min": [
        0
      ],
      "type": "SCALAR"
    },
    {
      "bufferView": 2,
      "byteOffset": 308160,
      "componentType": 5126,
      "count": 696,
      "max": [
        0.15066422522068024,
        0.15066422522068024,
        1.9183067083358765
      ],
      "min": [
        -0.15066377818584442,
        -0.15066376328468323,
        1.479411244392395
      ],
      "type": "VEC3"
    },
    {
      "bufferView": 2,
      "byteOffset": 316512,
      "componentType": 5126,
      "count": 696,
      "max": [
        0.99403190612792969,
        0.99403202533721924,
        1
      ],
      "min": [
        -0.99403190612792969,
        -0.99403196573257446,
        -1
      ],
      "type": "VEC3"
    },
    {
      "bufferView": 1,
      "byteOffset": 102720,
      "componentType": 5126,
      "count": 696,
      "max": [
        0.89510077238082886,
        0.95271837711334229
      ],
      "min": [
        0.36286842823028564,
        0
      ],
      "type": "VEC2"
    },
    {
      "bufferView": 0,
      "byteOffset": 246888,
      "componentType": 5125,
      "count": 2586,
      "max": [
        695
      ],
      "min": [
        0
      ],
      "type": "SCALAR"
    },
    {
      "bufferView": 2,
      "byteOffset": 324864,
      "componentType": 5126,
      "count": 264,
      "max": [
        1,
        1,
        1.2380435466766357
      ],
      "min": [
        -1,
        -1,
        -0.0041108434088528156
      ],
      "type": "VEC3"
    },
    {
      "bufferView": 2,
      "byteOffset": 328032,
      "componentType": 5126,
      "count": 264,
      "max": [
        0.9786452054977417,
        0.9786452054977417,
        0.97864896059036255
      ],
      "min": [
        -0.9786452054977417,
        -0.9786452054977417,
        -0.97864806652069092
      ],
      "type": "VEC3"
    },
    {
      "bufferView": 1,
      "byteOffset": 108288,
      "componentType": 5126,
      "count": 264,
      "max": [
        0.99982815980911255,
        0.97462755441665649
      ],
      "min": [
        0.00017191778169944882,
        0.00017191778169944882
      ],
      "type": "VEC2"
    },
    {
      "bufferView": 0,
      "byteOffset": 257232,
      "componentType": 5125,
      "count": 768,
      "max": [
        263
      ],
      "min": [
        0
      ],
      "type": "SCALAR"
    }
  ],
  "asset": {
    "extras": {
      "author": "ScreamingHomie (https://sketchfab.com/ScreamingHomie)",
      "license": "CC-BY-4.0 (http://creativecommons.org/licenses/by/4.0/)",
      "source": "https://sketchfab.com/3d-models/bed-side-table-with-lamp-77887644a7ad4fd9a13f3b3f6ff21262",
      "title": "Bed Side Table with lamp"
    },
    "generator": "Sketchfab-9.34.0",
    "version": "2.0"
  },
  "bufferViews": [
    {
      "buffer": 0,
      "byteLength": 260304,
      "byteOffset": 0,
      "name": "floatBufferViews",
      "target": 34963
    },
    {
      "buffer": 0,
      "byteLength": 110400,
      "byteOffset": 260304,
      "byteStride": 8,
      "name": "floatBufferViews",
      "target": 34962
    },
    {
      "buffer": 0,
      "byteLength": 331200,
      "byteOffset": 370704,
      "byteStride": 12,
      "name": "floatBufferViews",
      "target": 34962
    }
  ],
  "buffers": [
    {
      "byteLength": 701904,
      "uri": "scene.bin"
    }
  ],
  "materials": [
    {
      "doubleSided": true,
      "emissiveFactor": [
        0,
        0,
        0
      ],
      "name": "Material.033",
      "pbrMetallicRoughness": {
        "baseColorFactor": [
          0.80000000000000004,
          0.80000000000000004,
          0.80000000000000004,
          1
        ],
        "metallicFactor": 0,
        "roughnessFactor": 0.2509971483987864
      }
    },
    {
      "doubleSided": true,
      "emissiveFactor": [
        0,
        0,
        0
      ],
      "name": "steel.001",
      "pbrMetallicRoughness": {
        "baseColorFactor": [
          0.80000000000000004,
          0.80000000000000004,
          0.80000000000000004,
          1
        ],
        "metallicFactor": 1,
        "roughnessFactor": 0.47539505925128744
      }
    },
    {
      "doubleSided": true,
      "emissiveFactor": [
        0,
        0,
        0
      ],
      "name": "metal_body",
      "pbrMetallicRoughness": {
        "baseColorFactor": [
          0.80000000000000004,
          0.58976600000000001,
          0.22616800000000001,
          1
        ],
        "metallicFactor": 1,
        "roughnessFactor": 0.41459332761797052
      }
    },
    {
      "alphaMode": "BLEND",
      "doubleSided": true,
      "emissiveFactor": [
        0,
        0,
        0
      ],
      "name": "glass_handle",
      "pbrMetallicRoughness": {
        "baseColorFactor": [
          0.80000000000000004,
          0.80000000000000004,
          0.80000000000000004,
          0.23275662890879134
        ],
        "metallicFactor": 0,
        "roughnessFactor": 0.74701778718652956
      }
    },
    {
      "doubleSided": true,
      "emissiveFactor": [
        1,
        1,
        1
      ],
      "name": "light",
      "pbrMetallicRoughness": {
        "baseColorFactor": [
          0.80000000000000004,
          0.80000000000000004,
          0.80000000000000004,
          1
        ],
        "metallicFactor": 0,
        "roughnessFactor": 0.80404082057734572
      }
    },
    {
      "doubleSided": true,
      "emissiveFactor": [
        0,
        0,
        0
      ],
      "name": "Material.002",
      "pbrMetallicRoughness": {
        "baseColorFactor": [
          0.142401,
          0.142401,
          0.142401,
          1
        ],
        "metallicFactor": 0,
        "roughnessFactor": 0.96815816839360525
      }
    }
  ],
  "meshes": [
    {
      "name": "bedside table_Material.033_0",
      "primitives": [
        {
          "attributes": {
            "NORMAL": 1,
            "POSITION": 0,
            "TEXCOORD_0": 2
          },
          "indices": 3,
          "material": 0,
          "mode": 4
        }
      ]
    },
    {
      "name": "bedside table_steel.001_0",
      "primitives": [
        {
          "attributes": {
            "NORMAL": 5,
            "POSITION": 4,
            "TEXCOORD_0": 6
          },
          "indices": 7,
          "material": 1,
          "mode": 4
        }
      ]
    },
    {
      "name": "Circle_metal body_0",
      "primitives": [
        {
          "attributes": {
            "NORMAL": 9,
            "POSITION": 8,
            "TEXCOORD_0": 10
          },
          "indices": 11,
          "material": 2,
          "mode": 4
        }
      ]
    },
    {
      "name": "Circle_glass handle_0",
      "primitives": [
        {
          "attributes": {
            "NORMAL": 13,
            "POSITION": 12,
            "TEXCOORD_0": 14
          },
          "indices": 15,
          "material": 3,
          "mode": 4
        }
      ]
    },
    {
      "name": "Circle_light_0",
      "primitives": [
        {
          "attributes": {
            "NORMAL": 17,
            "POSITION": 16,
            "TEXCOORD_0": 18
          },
          "indices": 19,
          "material": 4,
          "mode": 4
        }
      ]
    },
    {
      "name": "Circle.001_Material.002_0",
      "primitives": [
        {
          "attributes": {
            "NORMAL": 21,
            "POSITION": 20,
            "TEXCOORD_0": 22
          },
          "indices": 23,
          "material": 5,
          "mode": 4
        }
      ]
    }
  ],
  "nodes": [
    {
      "children": [
        1
      ],
      "name": "RootNode (gltf orientation matrix)",
      "rotation": [
        -0.70710678118654746,
        -0,
        -0,
        0.70710678118654757
      ]
    },
    {
      "children": [
        2
      ],
      "name": "RootNode (model correction matrix)"
    },
    {
      "children": [
        3
      ],
      "matrix": [
        1,
        0,
        0,
        0,
        0,
        0,
        1,
        0,
        0,
        -1,
        0,
        0,
        0,
        0,
        0,
        1
      ],
      "name": "0681b687e7b945d98d36e834f9adc890.fbx"
    },
    {
      "children": [
        4,
        7
      ],
      "name": "RootNode"
    },
    {
      "children": [
        5,
        6
      ],
      "matrix": [
        18.862455368041992,
        0,
        0,
        0,
        0,
        -2.3245741040160121e-06,
        -14.268134117126277,
        0,
        0,
        18.862455368041743,
        -3.0730840435594988e-06,
        0,
        1.00669264793396,
        -17.103218078613281,
        -3.6146645545959473,
        1
      ],
      "name": "bedside table"
    },
    {
      "mesh": 0,
      "name": "bedside table_Material.033_0"
    },
    {
      "mesh": 1,
      "name": "bedside table_steel.001_0"
    },
    {
      "children": [
        8,
        9,
        10,
        11
      ],
      "matrix": [
        17.501220703125,
        0,
        0,
        0,
        -0,
        -2.8513107671395105e-06,
        -17.501220703124769,
        0,
        0,
        17.501220703124769,
        -2.8513107671395105e-06,
        0,
        -1.1842906475067139,
        1.7655409574508667,
        -7.3564181327819824,
        1
      ],
      "name": "Circle"
    },
    {
      "mesh": 2,
      "name": "Circle_metal body_0"
    },
    {
      "mesh": 3,
      "name": "Circle_glass handle_0"
    },
    {
      "mesh": 4,
      "name": "Circle_light_0"
    },
    {
      "children": [
        12
      ],
      "matrix": [
        0.58730131387710571,
        0,
        0,
        0,
        0,
        0.58730131387710571,
        0,
        0,
        0,
        0,
        0.58730131387710571,
        0,
        -0.016240283846855164,
        -2.6822090148925781e-07,
        1.3670166730880737,
        1
      ],
      "name": "Circle.001"
    },
    {
      "mesh": 5,
      "name": "Circle.001_Material.002_0"
    }
  ],
  "scene": 0,
  "scenes": [
    {
      "name": "OSG_Scene",
      "nodes": [
        0
      ]
    }
  ]
}

