{
  "accessors": [
    {
      "bufferView": 2,
      "componentType": 5126,
      "count": 15118,
      "max": [
        218.79132080078125,
        4290.86181640625,
        218.79132080078125
      ],
      "min": [
        -218.79132080078125,
        -7105.30224609375,
        -218.79132080078125
      ],
      "type": "VEC3"
    },
    {
      "bufferView": 2,
      "byteOffset": 181416,
      "componentType": 5126,
      "count": 15118,
      "max": [
        1,
        1,
        1
      ],
      "min": [
        -1,
        -1,
        -1
      ],
      "type": "VEC3"
    },
    {
      "bufferView": 3,
      "componentType": 5126,
      "count": 15118,
      "max": [
        1,
        0.135154128074646,
        1,
        1
      ],
      "min": [
        -1,
        -0.13515421748161316,
        -1,
        1
      ],
      "type": "VEC4"
    },
    {
      "bufferView": 1,
      "componentType": 5126,
      "count": 15118,
      "max": [
        1,
        1
      ],
      "min": [
        0,
        -0.0031273083295673132
      ],
      "type": "VEC2"
    },
    {
      "bufferView": 1,
      "byteOffset": 120944,
      "componentType": 5126,
      "count": 15118,
      "max": [
        1,
        1
      ],
      "min": [
        0,
        -0.0031273083295673132
      ],
      "type": "VEC2"
    },
    {
      "bufferView": 0,
      "componentType": 5125,
      "count": 69906,
      "max": [
        15117
      ],
      "min": [
        0
      ],
      "type": "SCALAR"
    },
    {
      "bufferView": 2,
      "byteOffset": 362832,
      "componentType": 5126,
      "count": 610,
      "max": [
        50,
        149.84286499023438,
        50
      ],
      "min": [
        -50,
        -43.301258087158203,
        -50
      ],
      "type": "VEC3"
    },
    {
      "bufferView": 2,
      "byteOffset": 370152,
      "componentType": 5126,
      "count": 610,
      "max": [
        0.99946814775466919,
        1,
        0.99946814775466919
      ],
      "min": [
        -0.99946814775466919,
        -0.99665743112564087,
        -0.99946814775466919
      ],
      "type": "VEC3"
    },
    {
      "bufferView": 3,
      "byteOffset": 241888,
      "componentType": 5126,
      "count": 610,
      "max": [
        1,
        0.98758584260940552,
        1,
        1
      ],
      "min": [
        -0.99999088048934937,
        -0.54184448719024658,
        -1,
        1
      ],
      "type": "VEC4"
    },
    {
      "bufferView": 1,
      "byteOffset": 241888,
      "componentType": 5126,
      "count": 610,
      "max": [
        1,
        1
      ],
      "min": [
        -0.068250097334384918,
        0
      ],
      "type": "VEC2"
    },
    {
      "bufferView": 0,
      "byteOffset": 279624,
      "componentType": 5125,
      "count": 2088,
      "max": [
        609
      ],
      "min": [
        0
      ],
      "type": "SCALAR"
    },
    {
      "bufferView": 2,
      "byteOffset": 377472,
      "componentType": 5126,
      "count": 16656,
      "max": [
        59.523807525634766,
        5022.87744140625,
        59.523807525634766
      ],
      "min": [
        -59.523807525634766,
        -5394.85595703125,
        -59.523807525634766
      ],
      "type": "VEC3"
    },
    {
      "bufferView": 2,
      "byteOffset": 577344,
      "componentType": 5126,
      "count": 16656,
      "max": [
        1,
        0.96628719568252563,
        1
      ],
      "min": [
        -1,
        -0.96628719568252563,
        -1
      ],
      "type": "VEC3"
    },
    {
      "bufferView": 3,
      "byteOffset": 251648,
      "componentType": 5126,
      "count": 16656,
      "max": [
        1,
        0.25515499711036682,
        1,
        1
      ],
      "min": [
        -1,
        -0.2551552951335907,
        -1,
        1
      ],
      "type": "VEC4"
    },
    {
      "bufferView": 1,
      "byteOffset": 246768,
      "componentType": 5126,
      "count": 16656,
      "max": [
        1,
        0.96436554193496704
      ],
      "min": [
        0,
        -0.02357022650539875
      ],
      "type": "VEC2"
    },
    {
      "bufferView": 0,
      "byteOffset": 287976,
      "componentType": 5125,
      "count": 71712,
      "max": [
        16655
      ],
      "min": [
        0
      ],
      "type": "SCALAR"
    },
    {
      "bufferView": 2,
      "byteOffset": 777216,
      "componentType": 5126,
      "count": 643,
      "max": [
        50,
        1678.30126953125,
        50
      ],
      "min": [
        -50,
        -75,
        -50
      ],
      "type": "VEC3"
    },
    {
      "bufferView": 2,
      "byteOffset": 784932,
      "componentType": 5126,
      "count": 643,
      "max": [
        1,
        1,
        1
      ],
      "min": [
        -1,
        -1,
        -1
      ],
      "type": "VEC3"
    },
    {
      "bufferView": 3,
      "byteOffset": 518144,
      "componentType": 5126,
      "count": 643,
      "max": [
        1,
        0.66124957799911499,
        1,
        1
      ],
      "min": [
        -1,
        -0.66124963760375977,
        -1,
        1
      ],
      "type": "VEC4"
    },
    {
      "bufferView": 1,
      "byteOffset": 380016,
      "componentType": 5126,
      "count": 643,
      "max": [
        1,
        0.99510353803634644
      ],
      "min": [
        0,
        -0.0031273083295673132
      ],
      "type": "VEC2"
    },
    {
      "bufferView": 0,
      "byteOffset": 574824,
      "componentType": 5125,
      "count": 3000,
      "max": [
        642
      ],
      "min": [
        0
      ],
      "type": "SCALAR"
    },
    {
      "bufferView": 2,
      "byteOffset": 792648,
      "componentType": 5126,
      "count": 740,
      "max": [
        109.55506896972656,
        142.01383972167969,
        109.55506896972656
      ],
      "min": [
        -109.55506896972656,
        -75,
        -109.55506896972656
      ],
      "type": "VEC3"
    },
    {
      "bufferView": 2,
      "byteOffset": 801528,
      "componentType": 5126,
      "count": 740,
      "max": [
        1,
        1,
        1
      ],
      "min": [
        -1,
        -1,
        -1
      ],
      "type": "VEC3"
    },
    {
      "bufferView": 3,
      "byteOffset": 528432,
      "componentType": 5126,
      "count": 740,
      "max": [
        1,
        0.12886308133602142,
        1,
        1
      ],
      "min": [
        -1,
        -0.12886306643486023,
        -1,
        1
      ],
      "type": "VEC4"
    },
    {
      "bufferView": 1,
      "byteOffset": 385160,
      "componentType": 5126,
      "count": 740,
      "max": [
        1,
        0.99510353803634644
      ],
      "min": [
        0,
        -0.0031273083295673132
      ],
      "type": "VEC2"
    },
    {
      "bufferView": 0,
      "byteOffset": 586824,
      "componentType": 5125,
      "count": 3354,
      "max": [
        739
      ],
      "min": [
        0
      ],
      "type": "SCALAR"
    },
    {
      "bufferView": 2,
      "byteOffset": 810408,
      "componentType": 5126,
      "count": 99,
      "max": [
        50,
        75,
        50
      ],
      "min": [
        -50,
        -75,
        -50
      ],
      "type": "VEC3"
    },
    {
      "bufferView": 2,
      "byteOffset": 811596,
      "componentType": 5126,
      "count": 99,
      "max": [
        1,
        0,
        1
      ],
      "min": [
        -1,
        -1,
        -1
      ],
      "type": "VEC3"
    },
    {
      "bufferView": 3,
      "byteOffset": 540272,
      "componentType": 5126,
      "count": 99,
      "max": [
        1,
        0,
        1,
        1
      ],
      "min": [
        -1,
        0,
        -1,
        1
      ],
      "type": "VEC4"
    },
    {
      "bufferView": 1,
      "byteOffset": 391080,
      "componentType": 5126,
      "count": 99,
      "max": [
        1,
        0.99786120653152466
      ],
      "min": [
        0,
        0
      ],
      "type": "VEC2"
    },
    {
      "bufferView": 0,
      "byteOffset": 600240,
      "componentType": 5125,
      "count": 354,
      "max": [
        98
      ],
      "min": [
        0
      ],
      "type": "SCALAR"
    },
    {
      "bufferView": 2,
      "byteOffset": 812784,
      "componentType": 5126,
      "count": 362,
      "max": [
        5.6155200004577637,
        50.440757751464844,
        57.635505676269531
      ],
      "min": [
        -5.8955202102661133,
        36.610744476318359,
        46.124492645263672
      ],
      "type": "VEC3"
    },
    {
      "bufferView": 2,
      "byteOffset": 817128,
      "componentType": 5126,
      "count": 362,
      "max": [
        0.99929648637771606,
        1,
        0.99918931722640991
      ],
      "min": [
        -0.9989885687828064,
        -1,
        -0.99916696548461914
      ],
      "type": "VEC3"
    },
    {
      "bufferView": 3,
      "byteOffset": 541856,
      "componentType": 5126,
      "count": 362,
      "max": [
        1,
        0.99927389621734619,
        1,
        -1
      ],
      "min": [
        -1,
        -4.8676653818802151e-09,
        -1,
        -1
      ],
      "type": "VEC4"
    },
    {
      "bufferView": 1,
      "byteOffset": 391872,
      "componentType": 5126,
      "count": 362,
      "max": [
        1,
        1
      ],
      "min": [
        0,
        0
      ],
      "type": "VEC2"
    },
    {
      "bufferView": 0,
      "byteOffset": 601656,
      "componentType": 5125,
      "count": 1872,
      "max": [
        361
      ],
      "min": [
        0
      ],
      "type": "SCALAR"
    },
    {
      "bufferView": 2,
      "byteOffset": 821472,
      "componentType": 5126,
      "count": 946,
      "max": [
        3.9563899040222168,
        36.607856750488281,
        56.167716979980469
      ],
      "min": [
        -4.0881032943725586,
        23.091188430786133,
        48.078910827636719
      ],
      "type": "VEC3"
    },
    {
      "bufferView": 2,
      "byteOffset": 832824,
      "componentType": 5126,
      "count": 946,
      "max": [
        0.99749851226806641,
        1,
        1
      ],
      "min": [
        -0.99749892950057983,
        -1,
        -1
      ],
      "type": "VEC3"
    },
    {
      "bufferView": 3,
      "byteOffset": 547648,
      "componentType": 5126,
      "count": 946,
      "max": [
        0.99999916553497314,
        0.53316318988800049,
        0.99999946355819702,
        1
      ],
      "min": [
        -0.99944466352462769,
        -0.54031926393508911,
        -0.99999994039535522,
        1
      ],
      "type": "VEC4"
    },
    {
      "bufferView": 1,
      "byteOffset": 394768,
      "componentType": 5126,
      "count": 946,
      "max": [
        0,
        1
      ],
      "min": [
        -1,
        0
      ],
      "type": "VEC2"
    },
    {
      "bufferView": 1,
      "byteOffset": 402336,
      "componentType": 5126,
      "count": 946,
      "max": [
        1.0682125091552734,
        1.1936839818954468
      ],
      "min": [
        -0.19125345349311829,
        0.010071302764117718
      ],
      "type": "VEC2"
    },
    {
      "bufferView": 0,
      "byteOffset": 609144,
      "componentType": 5125,
      "count": 2328,
      "max": [
        945
      ],
      "min": [
        0
      ],
      "type": "SCALAR"
    },
    {
      "bufferView": 2,
      "byteOffset": 844176,
      "componentType": 5126,
      "count": 511,
      "max": [
        49.968349456787109,
        14.847986221313477,
        49.968349456787109
      ],
      "min": [
        -49.968349456787109,
        -1.0430813546236095e-08,
        -49.968349456787109
      ],
      "type": "VEC3"
    },
    {
      "bufferView": 2,
      "byteOffset": 850308,
      "componentType": 5126,
      "count": 511,
      "max": [
        1,
        1,
        1
      ],
      "min": [
        -1,
        -1,
        -1
      ],
      "type": "VEC3"
    },
    {
      "bufferView": 3,
      "byteOffset": 562784,
      "componentType": 5126,
      "count": 511,
      "max": [
        1,
        0.064381219446659088,
        1,
        1
      ],
      "min": [
        -1,
        -0.218875452876091,
        -1,
        1
      ],
      "type": "VEC4"
    },
    {
      "bufferView": 1,
      "byteOffset": 409904,
      "componentType": 5126,
      "count": 511,
      "max": [
        1,
        1
      ],
      "min": [
        0,
        -0.0031273083295673132
      ],
      "type": "VEC2"
    },
    {
      "bufferView": 0,
      "byteOffset": 618456,
      "componentType": 5125,
      "count": 2082,
      "max": [
        510
      ],
      "min": [
        0
      ],
      "type": "SCALAR"
    }
  ],
  "asset": {
    "extras": {
      "author": "Alex321432 (https://sketchfab.com/killercws321432)",
      "license": "CC-BY-4.0 (http://creativecommons.org/licenses/by/4.0/)",
      "source": "https://sketchfab.com/models/83ee9c8c89f9418692f479550fea065f",
      "title": "Low-poly Modern Lamp"
    },
    "generator": "Sketchfab-3.43.4",
    "version": "2.0"
  },
  "bufferViews": [
    {
      "buffer": 0,
      "byteLength": 626784,
      "byteOffset": 0,
      "name": "floatBufferViews",
      "target": 34963
    },
    {
      "buffer": 0,
      "byteLength": 413992,
      "byteOffset": 626784,
      "byteStride": 8,
      "name": "floatBufferViews",
      "target": 34962
    },
    {
      "buffer": 0,
      "byteLength": 856440,
      "byteOffset": 1040776,
      "byteStride": 12,
      "name": "floatBufferViews",
      "target": 34962
    },
    {
      "buffer": 0,
      "byteLength": 570960,
      "byteOffset": 1897216,
      "byteStride": 16,
      "name": "floatBufferViews",
      "target": 34962
    }
  ],
  "buffers": [
    {
      "byteLength": 2468176,
      "uri": "scene.bin"
    }
  ],
  "materials": [
    {
      "doubleSided": false,
      "emissiveFactor": [
        0,
        0,
        0
      ],
      "name": "Chain",
      "pbrMetallicRoughness": {
        "baseColorFactor": [
          1,
          1,
          1,
          1
        ],
        "metallicFactor": 0.83708079270000002,
        "roughnessFactor": 0
      }
    },
    {
      "doubleSided": true,
      "name": "LightSwitch",
      "pbrMetallicRoughness": {
        "baseColorFactor": [
          1,
          1,
          1,
          1
        ],
        "metallicFactor": 0,
        "roughnessFactor": 0.59999999999999998
      }
    },
    {
      "doubleSided": false,
      "emissiveFactor": [
        0,
        0,
        0
      ],
      "name": "LampStand",
      "pbrMetallicRoughness": {
        "baseColorFactor": [
          0.5612388103,
          0.5612388103,
          0.5612388103,
          1
        ],
        "metallicFactor": 0.61756859760000005,
        "roughnessFactor": 0.11413871949999999
      }
    },
    {
      "doubleSided": true,
      "name": "LampTop",
      "pbrMetallicRoughness": {
        "baseColorFactor": [
          0.062690548799999996,
          0.062690548799999996,
          0.062690548799999996,
          1
        ],
        "metallicFactor": 0,
        "roughnessFactor": 1
      }
    },
    {
      "alphaMode": "BLEND",
      "doubleSided": true,
      "emissiveFactor": [
        0,
        0,
        0
      ],
      "name": "LampShade",
      "pbrMetallicRoughness": {
        "baseColorFactor": [
          0.82911400000000002,
          0.82911400000000002,
          0.82911400000000002,
          0.75
        ],
        "metallicFactor": 0,
        "roughnessFactor": 1
      }
    },
    {
      "doubleSided": true,
      "emissiveFactor": [
        1,
        1,
        1
      ],
      "name": "Wall_Lamp_GI",
      "pbrMetallicRoughness": {
        "baseColorFactor": [
          1,
          1,
          1,
          1
        ],
        "metallicFactor": 0,
        "roughnessFactor": 1
      }
    },
    {
      "doubleSided": true,
      "emissiveFactor": [
        0,
        0,
        0
      ],
      "name": "Wall_lamp__frame",
      "pbrMetallicRoughness": {
        "baseColorFactor": [
          1,
          1,
          1,
          1
        ],
        "metallicFactor": 0,
        "roughnessFactor": 0.26639672589999996
      }
    },
    {
      "doubleSided": true,
      "name": "LampBase",
      "pbrMetallicRoughness": {
        "baseColorFactor": [
          0.023855900906205749,
          0.023855900906205749,
          0.023855900906205749,
          1
        ],
        "metallicFactor": 1,
        "roughnessFactor": 0.19340701220000001
      }
    }
  ],
  "meshes": [
    {
      "name": "Chain_Chain_0",
      "primitives": [
        {
          "attributes": {
            "NORMAL": 1,
            "POSITION": 0,
            "TANGENT": 2,
            "TEXCOORD_0": 3,
            "TEXCOORD_1": 4
          },
          "indices": 5,
          "material": 0,
          "mode": 4
        }
      ]
    },
    {
      "name": "LightSwitch_LightSwitch_0",
      "primitives": [
        {
          "attributes": {
            "NORMAL": 7,
            "POSITION": 6,
            "TANGENT": 8,
            "TEXCOORD_0": 9
          },
          "indices": 10,
          "material": 1,
          "mode": 4
        }
      ]
    },
    {
      "name": "Stem (2)_LampStand_0",
      "primitives": [
        {
          "attributes": {
            "NORMAL": 12,
            "POSITION": 11,
            "TANGENT": 13,
            "TEXCOORD_0": 14
          },
          "indices": 15,
          "material": 2,
          "mode": 4
        }
      ]
    },
    {
      "name": "LightTop_LampTop_0",
      "primitives": [
        {
          "attributes": {
            "NORMAL": 17,
            "POSITION": 16,
            "TANGENT": 18,
            "TEXCOORD_0": 19
          },
          "indices": 20,
          "material": 3,
          "mode": 4
        }
      ]
    },
    {
      "name": "LightBase_LampTop_0",
      "primitives": [
        {
          "attributes": {
            "NORMAL": 22,
            "POSITION": 21,
            "TANGENT": 23,
            "TEXCOORD_0": 24
          },
          "indices": 25,
          "material": 3,
          "mode": 4
        }
      ]
    },
    {
      "name": "Light_LampShade_0",
      "primitives": [
        {
          "attributes": {
            "NORMAL": 27,
            "POSITION": 26,
            "TANGENT": 28,
            "TEXCOORD_0": 29
          },
          "indices": 30,
          "material": 4,
          "mode": 4
        }
      ]
    },
    {
      "name": "Wall lamp (10)_Wall_Lamp_GI_0",
      "primitives": [
        {
          "attributes": {
            "NORMAL": 32,
            "POSITION": 31,
            "TANGENT": 33,
            "TEXCOORD_0": 34
          },
          "indices": 35,
          "material": 5,
          "mode": 4
        }
      ]
    },
    {
      "name": "Wall lamp (11)_Wall lamp_ frame_0",
      "primitives": [
        {
          "attributes": {
            "NORMAL": 37,
            "POSITION": 36,
            "TANGENT": 38,
            "TEXCOORD_0": 39,
            "TEXCOORD_1": 40
          },
          "indices": 41,
          "material": 6,
          "mode": 4
        }
      ]
    },
    {
      "name": "Base_LampBase_0",
      "primitives": [
        {
          "attributes": {
            "NORMAL": 43,
            "POSITION": 42,
            "TANGENT": 44,
            "TEXCOORD_0": 45
          },
          "indices": 46,
          "material": 7,
          "mode": 4
        }
      ]
    }
  ],
  "nodes": [
    {
      "children": [
        1
      ],
      "name": "RootNode (gltf orientation matrix)",
      "rotation": [
        -0.70710678118654746,
        -0,
        -0,
        0.70710678118654757
      ]
    },
    {
      "children": [
        2
      ],
      "name": "RootNode (model correction matrix)"
    },
    {
      "children": [
        3
      ],
      "matrix": [
        1,
        0,
        0,
        0,
        0,
        0,
        1,
        0,
        0,
        -1,
        0,
        0,
        0,
        0,
        0,
        1
      ],
      "name": "3e1f7a9fcf4c4873a62a41b7e4155b86.fbx"
    },
    {
      "children": [
        4
      ],
      "name": "RootNode"
    },
    {
      "children": [
        5,
        7,
        9,
        11,
        13,
        15,
        21
      ],
      "name": "Product"
    },
    {
      "children": [
        6
      ],
      "matrix": [
        0.0082499999552965164,
        0,
        0,
        0,
        0,
        0.0082499999552965164,
        0,
        0,
        0,
        0,
        0.0082499999552965164,
        0,
        -16.25,
        355.5,
        0,
        1
      ],
      "name": "Chain"
    },
    {
      "mesh": 0,
      "name": "Chain_Chain_0"
    },
    {
      "children": [
        8
      ],
      "matrix": [
        0.038159999996423721,
        0,
        0,
        0,
        0,
        0.038159999996423721,
        0,
        0,
        0,
        0,
        0.038159999996423721,
        0,
        -16.260000228881836,
        292.25,
        0,
        1
      ],
      "name": "LightSwitch"
    },
    {
      "mesh": 1,
      "name": "LightSwitch_LightSwitch_0"
    },
    {
      "children": [
        10
      ],
      "matrix": [
        0.070623002946376801,
        0,
        0,
        0,
        0,
        0.037430189549922943,
        0,
        0,
        0,
        0,
        0.070623002946376801,
        0,
        0,
        213.80000305175781,
        0,
        1
      ],
      "name": "Stem (2)"
    },
    {
      "mesh": 2,
      "name": "Stem (2)_LampStand_0"
    },
    {
      "children": [
        12
      ],
      "matrix": [
        1,
        0,
        0,
        0,
        0,
        0.0096389995887875557,
        0,
        0,
        0,
        0,
        1,
        0,
        0,
        489.5,
        0,
        1
      ],
      "name": "LightTop"
    },
    {
      "mesh": 3,
      "name": "LightTop_LampTop_0"
    },
    {
      "children": [
        14
      ],
      "matrix": [
        0.45639151334762573,
        0,
        0,
        0,
        0,
        0.049028612673282623,
        0,
        0,
        0,
        0,
        0.45639151334762573,
        0,
        0,
        394.5,
        0,
        1
      ],
      "name": "LightBase"
    },
    {
      "mesh": 4,
      "name": "LightBase_LampTop_0"
    },
    {
      "children": [
        16,
        17,
        19
      ],
      "matrix": [
        0.93909811973571777,
        0,
        0,
        0,
        0,
        0.59871667623519897,
        0,
        0,
        0,
        0,
        0.93909811973571777,
        0,
        0,
        444.70001220703125,
        0,
        1
      ],
      "name": "Light"
    },
    {
      "mesh": 5,
      "name": "Light_LampShade_0"
    },
    {
      "children": [
        18
      ],
      "matrix": [
        1.0648515224456787,
        0,
        0,
        0,
        0,
        1.6702392101287842,
        0,
        0,
        0,
        0,
        1.0648515224456787,
        0,
        0,
        -118.92102813720703,
        -55.159305572509766,
        1
      ],
      "name": "Wall lamp (10)"
    },
    {
      "mesh": 6,
      "name": "Wall lamp (10)_Wall_Lamp_GI_0"
    },
    {
      "children": [
        20
      ],
      "matrix": [
        1.0648515224456787,
        0,
        0,
        0,
        0,
        1.6702392101287842,
        0,
        0,
        0,
        0,
        1.0648515224456787,
        0,
        0,
        -118.92102813720703,
        -55.159305572509766,
        1
      ],
      "name": "Wall lamp (11)"
    },
    {
      "mesh": 7,
      "name": "Wall lamp (11)_Wall lamp_ frame_0"
    },
    {
      "children": [
        22
      ],
      "name": "Base"
    },
    {
      "mesh": 8,
      "name": "Base_LampBase_0"
    }
  ],
  "scene": 0,
  "scenes": [
    {
      "name": "OSG_Scene",
      "nodes": [
        0
      ]
    }
  ]
}

