{
  "accessors": [
    {
      "bufferView": 2,
      "componentType": 5126,
      "count": 3158,
      "max": [
        0.9318963885307312,
        23.535419464111328,
        0.95123744010925293
      ],
      "min": [
        -0.94083970785140991,
        -23.658836364746094,
        -0.95038557052612305
      ],
      "type": "VEC3"
    },
    {
      "bufferView": 2,
      "byteOffset": 37896,
      "componentType": 5126,
      "count": 3158,
      "max": [
        0.99996960163116455,
        0.88497328758239746,
        0.99986517429351807
      ],
      "min": [
        -0.99998819828033447,
        -0.91466683149337769,
        -0.99996185302734375
      ],
      "type": "VEC3"
    },
    {
      "bufferView": 1,
      "componentType": 5126,
      "count": 3158,
      "max": [
        0.875,
        1
      ],
      "min": [
        0.125,
        0
      ],
      "type": "VEC2"
    },
    {
      "bufferView": 0,
      "componentType": 5125,
      "count": 17652,
      "max": [
        3157
      ],
      "min": [
        0
      ],
      "type": "SCALAR"
    },
    {
      "bufferView": 2,
      "byteOffset": 75792,
      "componentType": 5126,
      "count": 3158,
      "max": [
        0.9318963885307312,
        23.975996017456055,
        0.95123744010925293
      ],
      "min": [
        -0.94083970785140991,
        -23.658836364746094,
        -0.95038557052612305
      ],
      "type": "VEC3"
    },
    {
      "bufferView": 2,
      "byteOffset": 113688,
      "componentType": 5126,
      "count": 3158,
      "max": [
        0.99996960163116455,
        0.97642534971237183,
        0.99986517429351807
      ],
      "min": [
        -0.99998819828033447,
        -0.91466683149337769,
        -0.99998188018798828
      ],
      "type": "VEC3"
    },
    {
      "bufferView": 1,
      "byteOffset": 25264,
      "componentType": 5126,
      "count": 3158,
      "max": [
        0.875,
        1
      ],
      "min": [
        0.125,
        0
      ],
      "type": "VEC2"
    },
    {
      "bufferView": 0,
      "byteOffset": 70608,
      "componentType": 5125,
      "count": 17652,
      "max": [
        3157
      ],
      "min": [
        0
      ],
      "type": "SCALAR"
    },
    {
      "bufferView": 2,
      "byteOffset": 151584,
      "componentType": 5126,
      "count": 3158,
      "max": [
        0.9318963885307312,
        23.535419464111328,
        0.95123744010925293
      ],
      "min": [
        -0.94083970785140991,
        -23.658836364746094,
        -0.95038557052612305
      ],
      "type": "VEC3"
    },
    {
      "bufferView": 2,
      "byteOffset": 189480,
      "componentType": 5126,
      "count": 3158,
      "max": [
        0.99996960163116455,
        0.88497328758239746,
        0.99986517429351807
      ],
      "min": [
        -0.99998819828033447,
        -0.91466683149337769,
        -0.99996185302734375
      ],
      "type": "VEC3"
    },
    {
      "bufferView": 1,
      "byteOffset": 50528,
      "componentType": 5126,
      "count": 3158,
      "max": [
        0.875,
        1
      ],
      "min": [
        0.125,
        0
      ],
      "type": "VEC2"
    },
    {
      "bufferView": 0,
      "byteOffset": 141216,
      "componentType": 5125,
      "count": 17652,
      "max": [
        3157
      ],
      "min": [
        0
      ],
      "type": "SCALAR"
    },
    {
      "bufferView": 2,
      "byteOffset": 227376,
      "componentType": 5126,
      "count": 6724,
      "max": [
        0.87118083238601685,
        0.58819413185119629,
        0.880085289478302
      ],
      "min": [
        -0.7952265739440918,
        -0.024869009852409363,
        -0.92763406038284302
      ],
      "type": "VEC3"
    },
    {
      "bufferView": 2,
      "byteOffset": 308064,
      "componentType": 5126,
      "count": 6724,
      "max": [
        0.99996984004974365,
        1,
        0.99998784065246582
      ],
      "min": [
        -0.99954128265380859,
        -0.99999737739562988,
        -0.99999725818634033
      ],
      "type": "VEC3"
    },
    {
      "bufferView": 1,
      "byteOffset": 75792,
      "componentType": 5126,
      "count": 6724,
      "max": [
        1,
        1
      ],
      "min": [
        0,
        0
      ],
      "type": "VEC2"
    },
    {
      "bufferView": 0,
      "byteOffset": 211824,
      "componentType": 5125,
      "count": 39366,
      "max": [
        6723
      ],
      "min": [
        0
      ],
      "type": "SCALAR"
    },
    {
      "bufferView": 2,
      "byteOffset": 388752,
      "componentType": 5126,
      "count": 384,
      "max": [
        1,
        1,
        1
      ],
      "min": [
        -1,
        -1,
        -1
      ],
      "type": "VEC3"
    },
    {
      "bufferView": 2,
      "byteOffset": 393360,
      "componentType": 5126,
      "count": 384,
      "max": [
        1,
        1,
        1
      ],
      "min": [
        -1,
        -1,
        -1
      ],
      "type": "VEC3"
    },
    {
      "bufferView": 1,
      "byteOffset": 129584,
      "componentType": 5126,
      "count": 384,
      "max": [
        0.86248356103897095,
        1
      ],
      "min": [
        0.125,
        0
      ],
      "type": "VEC2"
    },
    {
      "bufferView": 0,
      "byteOffset": 369288,
      "componentType": 5125,
      "count": 564,
      "max": [
        383
      ],
      "min": [
        0
      ],
      "type": "SCALAR"
    },
    {
      "bufferView": 2,
      "byteOffset": 397968,
      "componentType": 5126,
      "count": 864,
      "max": [
        1,
        1,
        1
      ],
      "min": [
        -1,
        -1,
        -1
      ],
      "type": "VEC3"
    },
    {
      "bufferView": 2,
      "byteOffset": 408336,
      "componentType": 5126,
      "count": 864,
      "max": [
        1,
        1,
        1
      ],
      "min": [
        -1,
        -1,
        -1
      ],
      "type": "VEC3"
    },
    {
      "bufferView": 1,
      "byteOffset": 132656,
      "componentType": 5126,
      "count": 864,
      "max": [
        0.86469221115112305,
        1
      ],
      "min": [
        0.125,
        0
      ],
      "type": "VEC2"
    },
    {
      "bufferView": 0,
      "byteOffset": 371544,
      "componentType": 5125,
      "count": 1284,
      "max": [
        863
      ],
      "min": [
        0
      ],
      "type": "SCALAR"
    }
  ],
  "asset": {
    "extras": {
      "author": "seanceezy (https://sketchfab.com/marianlisver)",
      "license": "CC-BY-4.0 (http://creativecommons.org/licenses/by/4.0/)",
      "source": "https://sketchfab.com/3d-models/masters-bed-black-6aee6ef4ff0f4e5681f1054a77c702cb",
      "title": "Master's Bed Black"
    },
    "generator": "Sketchfab-10.40.0",
    "version": "2.0"
  },
  "bufferViews": [
    {
      "buffer": 0,
      "byteLength": 376680,
      "byteOffset": 0,
      "name": "floatBufferViews",
      "target": 34963
    },
    {
      "buffer": 0,
      "byteLength": 139568,
      "byteOffset": 376680,
      "byteStride": 8,
      "name": "floatBufferViews",
      "target": 34962
    },
    {
      "buffer": 0,
      "byteLength": 418704,
      "byteOffset": 516248,
      "byteStride": 12,
      "name": "floatBufferViews",
      "target": 34962
    }
  ],
  "buffers": [
    {
      "byteLength": 934952,
      "uri": "scene.bin"
    }
  ],
  "materials": [
    {
      "doubleSided": true,
      "emissiveFactor": [
        0,
        0,
        0
      ],
      "name": "Material.005",
      "pbrMetallicRoughness": {
        "baseColorFactor": [
          0.27317799999999998,
          0.27317799999999998,
          0.27317799999999998,
          1
        ],
        "metallicFactor": 0,
        "roughnessFactor": 1
      }
    },
    {
      "doubleSided": true,
      "emissiveFactor": [
        0,
        0,
        0
      ],
      "name": "Material.003",
      "pbrMetallicRoughness": {
        "baseColorFactor": [
          0.045979699999999998,
          0.045979699999999998,
          0.045979699999999998,
          1
        ],
        "metallicFactor": 0,
        "roughnessFactor": 1
      }
    },
    {
      "doubleSided": true,
      "emissiveFactor": [
        0,
        0,
        0
      ],
      "name": "Material.002",
      "pbrMetallicRoughness": {
        "baseColorFactor": [
          0,
          0,
          0,
          1
        ],
        "metallicFactor": 0,
        "roughnessFactor": 1
      }
    }
  ],
  "meshes": [
    {
      "primitives": [
        {
          "attributes": {
            "NORMAL": 1,
            "POSITION": 0,
            "TEXCOORD_0": 2
          },
          "indices": 3,
          "material": 0,
          "mode": 4
        }
      ]
    },
    {
      "primitives": [
        {
          "attributes": {
            "NORMAL": 5,
            "POSITION": 4,
            "TEXCOORD_0": 6
          },
          "indices": 7,
          "material": 0,
          "mode": 4
        }
      ]
    },
    {
      "primitives": [
        {
          "attributes": {
            "NORMAL": 9,
            "POSITION": 8,
            "TEXCOORD_0": 10
          },
          "indices": 11,
          "material": 0,
          "mode": 4
        }
      ]
    },
    {
      "primitives": [
        {
          "attributes": {
            "NORMAL": 13,
            "POSITION": 12,
            "TEXCOORD_0": 14
          },
          "indices": 15,
          "material": 1,
          "mode": 4
        }
      ]
    },
    {
      "primitives": [
        {
          "attributes": {
            "NORMAL": 17,
            "POSITION": 16,
            "TEXCOORD_0": 18
          },
          "indices": 19,
          "material": 2,
          "mode": 4
        }
      ]
    },
    {
      "primitives": [
        {
          "attributes": {
            "NORMAL": 21,
            "POSITION": 20,
            "TEXCOORD_0": 22
          },
          "indices": 23,
          "material": 2,
          "mode": 4
        }
      ]
    }
  ],
  "nodes": [
    {
      "children": [
        1
      ],
      "name": "RootNode (gltf orientation matrix)",
      "rotation": [
        -0.70710678118654746,
        -0,
        -0,
        0.70710678118654757
      ]
    },
    {
      "children": [
        2
      ],
      "name": "RootNode (model correction matrix)"
    },
    {
      "children": [
        3
      ],
      "name": "root"
    },
    {
      "children": [
        4,
        6,
        8,
        10,
        12,
        14
      ],
      "matrix": [
        1,
        0,
        0,
        0,
        0,
        2.2204460492503131e-16,
        1,
        0,
        0,
        -1,
        2.2204460492503131e-16,
        0,
        0,
        0,
        0,
        1
      ],
      "name": "GLTF_SceneRootNode"
    },
    {
      "children": [
        5
      ],
      "matrix": [
        0.69360965490341187,
        0,
        0,
        0,
        0,
        0.01273414958268404,
        0,
        0,
        0,
        0,
        1,
        0,
        1.5884169340133667,
        0.83194291591644287,
        -0.95589762926101685,
        1
      ],
      "name": "Cube.001_1"
    },
    {
      "mesh": 0,
      "name": ""
    },
    {
      "children": [
        7
      ],
      "matrix": [
        0.69281512416699087,
        -0.019709738963801335,
        -0.026703619430444938,
        0,
        0.00031372636155803732,
        0.012672285180266826,
        -0.0012138079231185845,
        0,
        0.041021061361228427,
        0.094261433889687732,
        0.994701992863118,
        0,
        1.5529121160507202,
        0.92481797933578491,
        -2.5981383323669434,
        1
      ],
      "name": "Cube.002_2"
    },
    {
      "mesh": 1,
      "name": ""
    },
    {
      "children": [
        9
      ],
      "matrix": [
        0.69113262299680212,
        0.052235371168355728,
        -0.026486162494678098,
        0,
        -0.00083135286009688178,
        0.012402272100909099,
        0.0027660558112938818,
        0,
        0.053549163656338453,
        -0.21394688207704404,
        0.97537644974708004,
        0,
        1.5131725072860718,
        0.89397734403610229,
        0.65757125616073608,
        1
      ],
      "name": "Cube.004_3"
    },
    {
      "mesh": 2,
      "name": ""
    },
    {
      "children": [
        11
      ],
      "matrix": [
        -4.4669437408447266,
        -0,
        0,
        -0,
        -0,
        -4.4669437408447266,
        0,
        -0,
        -0,
        -0,
        -4.4669437408447266,
        -0,
        5.7406301498413086,
        1.0357512235641479,
        -1.0505355596542358,
        1
      ],
      "name": "Plane_4"
    },
    {
      "mesh": 3,
      "name": ""
    },
    {
      "children": [
        13
      ],
      "matrix": [
        3.7358083724975586,
        0,
        0,
        0,
        0,
        0.32058697938919067,
        0,
        0,
        0,
        0,
        2.9675459861755371,
        0,
        4.1538314819335938,
        0.2755584716796875,
        -0.95223808288574219,
        1
      ],
      "name": "Cube_5"
    },
    {
      "mesh": 4,
      "name": ""
    },
    {
      "children": [
        15
      ],
      "matrix": [
        4.4205985069274902,
        0,
        0,
        0,
        0,
        0.57368326187133789,
        0,
        0,
        0,
        0,
        3.5115101337432861,
        0,
        4.3837695121765137,
        -0.56502425670623779,
        -0.95223808288574219,
        1
      ],
      "name": "Cube.003_6"
    },
    {
      "mesh": 5,
      "name": ""
    }
  ],
  "scene": 0,
  "scenes": [
    {
      "name": "OSG_Scene",
      "nodes": [
        0
      ]
    }
  ]
}

