{
  "accessors": [
    {
      "bufferView": 1,
      "componentType": 5126,
      "count": 3380,
      "max": [
        2466.12939453125,
        -601.66790771484375,
        424.58279418945312
      ],
      "min": [
        1251.302734375,
        -1204.223388671875,
        78.603996276855469
      ],
      "type": "VEC3"
    },
    {
      "bufferView": 1,
      "byteOffset": 40560,
      "componentType": 5126,
      "count": 3380,
      "max": [
        0.99994385242462158,
        1,
        0.99492228031158447
      ],
      "min": [
        -0.99981230497360229,
        -1,
        -0.99981111288070679
      ],
      "type": "VEC3"
    },
    {
      "bufferView": 0,
      "componentType": 5125,
      "count": 9360,
      "max": [
        3379
      ],
      "min": [
        0
      ],
      "type": "SCALAR"
    },
    {
      "bufferView": 1,
      "byteOffset": 81120,
      "componentType": 5126,
      "count": 4177,
      "max": [
        2468.7080078125,
        -593.03448486328125,
        450.83499145507812
      ],
      "min": [
        1248.7078857421875,
        -1213.0347900390625,
        0
      ],
      "type": "VEC3"
    },
    {
      "bufferView": 1,
      "byteOffset": 131244,
      "componentType": 5126,
      "count": 4177,
      "max": [
        1,
        1,
        1
      ],
      "min": [
        -1,
        -1,
        -1
      ],
      "type": "VEC3"
    },
    {
      "bufferView": 0,
      "byteOffset": 37440,
      "componentType": 5125,
      "count": 11514,
      "max": [
        4176
      ],
      "min": [
        0
      ],
      "type": "SCALAR"
    },
    {
      "bufferView": 1,
      "byteOffset": 181368,
      "componentType": 5126,
      "count": 1236,
      "max": [
        2468.708251953125,
        -593.03448486328125,
        460.7969970703125
      ],
      "min": [
        1248.7083740234375,
        -1213.03466796875,
        41.109901428222656
      ],
      "type": "VEC3"
    },
    {
      "bufferView": 1,
      "byteOffset": 196200,
      "componentType": 5126,
      "count": 1236,
      "max": [
        1,
        1,
        1
      ],
      "min": [
        -1,
        -1,
        -1
      ],
      "type": "VEC3"
    },
    {
      "bufferView": 0,
      "byteOffset": 83496,
      "componentType": 5125,
      "count": 7416,
      "max": [
        1235
      ],
      "min": [
        0
      ],
      "type": "SCALAR"
    },
    {
      "bufferView": 1,
      "byteOffset": 211032,
      "componentType": 5126,
      "count": 1168,
      "max": [
        2453.090576171875,
        -608.9832763671875,
        455.88751220703125
      ],
      "min": [
        1264.771728515625,
        -1197.725341796875,
        46.811698913574219
      ],
      "type": "VEC3"
    },
    {
      "bufferView": 1,
      "byteOffset": 225048,
      "componentType": 5126,
      "count": 1168,
      "max": [
        0.99930286407470703,
        0.99930286407470703,
        0.9989202618598938
      ],
      "min": [
        -0.99926543235778809,
        -0.99929749965667725,
        -0.99928689002990723
      ],
      "type": "VEC3"
    },
    {
      "bufferView": 0,
      "byteOffset": 113160,
      "componentType": 5125,
      "count": 6984,
      "max": [
        1167
      ],
      "min": [
        0
      ],
      "type": "SCALAR"
    }
  ],
  "asset": {
    "extras": {
      "author": "Zuo Modern (https://sketchfab.com/zuo)",
      "license": "CC-BY-NC-ND-4.0 (http://creativecommons.org/licenses/by-nc-nd/4.0/)",
      "source": "https://sketchfab.com/models/717f80d4995c42df920f03438504dce5",
      "title": "Kure Coffee Table- Distressed Black - 100753"
    },
    "generator": "Sketchfab-3.18.7",
    "version": "2.0"
  },
  "bufferViews": [
    {
      "buffer": 0,
      "byteLength": 141096,
      "byteOffset": 0,
      "name": "floatBufferViews",
      "target": 34963
    },
    {
      "buffer": 0,
      "byteLength": 239064,
      "byteOffset": 141096,
      "byteStride": 12,
      "name": "floatBufferViews",
      "target": 34962
    }
  ],
  "buffers": [
    {
      "byteLength": 380160,
      "uri": "scene.bin"
    }
  ],
  "materials": [
    {
      "doubleSided": true,
      "emissiveFactor": [
        0,
        0,
        0
      ],
      "name": "Material__26",
      "pbrMetallicRoughness": {
        "baseColorFactor": [
          0,
          0,
          0,
          1
        ],
        "metallicFactor": 1,
        "roughnessFactor": 0.88318180889999998
      }
    },
    {
      "alphaMode": "BLEND",
      "doubleSided": true,
      "emissiveFactor": [
        0,
        0,
        0
      ],
      "name": "wire_177028149",
      "pbrMetallicRoughness": {
        "baseColorFactor": [
          0.074118391199999994,
          0.074118391199999994,
          0.074118391199999994,
          0.23469696039999999
        ],
        "metallicFactor": 0,
        "roughnessFactor": 0.91675550189999999
      }
    }
  ],
  "meshes": [
    {
      "primitives": [
        {
          "attributes": {
            "NORMAL": 1,
            "POSITION": 0
          },
          "indices": 2,
          "material": 0,
          "mode": 4
        }
      ]
    },
    {
      "primitives": [
        {
          "attributes": {
            "NORMAL": 4,
            "POSITION": 3
          },
          "indices": 5,
          "material": 0,
          "mode": 4
        }
      ]
    },
    {
      "primitives": [
        {
          "attributes": {
            "NORMAL": 7,
            "POSITION": 6
          },
          "indices": 8,
          "material": 0,
          "mode": 4
        }
      ]
    },
    {
      "primitives": [
        {
          "attributes": {
            "NORMAL": 10,
            "POSITION": 9
          },
          "indices": 11,
          "material": 1,
          "mode": 4
        }
      ]
    }
  ],
  "nodes": [
    {
      "children": [
        1
      ],
      "name": "RootNode (gltf orientation matrix)",
      "rotation": [
        -0.70710678118654746,
        -0,
        -0,
        0.70710678118654757
      ]
    },
    {
      "children": [
        2
      ],
      "name": "RootNode (model correction matrix)"
    },
    {
      "children": [
        3,
        4,
        5,
        6
      ],
      "name": "100753.obj.cleaner.materialmerger.gles"
    },
    {
      "mesh": 0,
      "name": ""
    },
    {
      "mesh": 1,
      "name": ""
    },
    {
      "mesh": 2,
      "name": ""
    },
    {
      "mesh": 3,
      "name": ""
    }
  ],
  "scene": 0,
  "scenes": [
    {
      "name": "OSG_Scene",
      "nodes": [
        0
      ]
    }
  ]
}

