{
  "accessors": [
    {
      "bufferView": 2,
      "componentType": 5126,
      "count": 4439,
      "max": [
        1065.6015625,
        -915.1776123046875,
        418.37741088867188
      ],
      "min": [
        65.601600646972656,
        -1415.177734375,
        -0.6226000189781189
      ],
      "type": "VEC3"
    },
    {
      "bufferView": 2,
      "byteOffset": 53268,
      "componentType": 5126,
      "count": 4439,
      "max": [
        1,
        1,
        1
      ],
      "min": [
        -1,
        -1,
        -1
      ],
      "type": "VEC3"
    },
    {
      "bufferView": 3,
      "componentType": 5126,
      "count": 4439,
      "max": [
        1,
        0.99999958276748657,
        1,
        1
      ],
      "min": [
        -1,
        -1,
        -1,
        1
      ],
      "type": "VEC4"
    },
    {
      "bufferView": 1,
      "componentType": 5126,
      "count": 4439,
      "max": [
        0.99959999322891235,
        0.74919998645782471
      ],
      "min": [
        0.00050000002374872565,
        0.25080001354217529
      ],
      "type": "VEC2"
    },
    {
      "bufferView": 0,
      "componentType": 5125,
      "count": 13488,
      "max": [
        4438
      ],
      "min": [
        0
      ],
      "type": "SCALAR"
    },
    {
      "bufferView": 2,
      "byteOffset": 106536,
      "componentType": 5126,
      "count": 184,
      "max": [
        1040.6015625,
        -940.17767333984375,
        418.37741088867188
      ],
      "min": [
        90.601600646972656,
        -1390.177734375,
        408.37741088867188
      ],
      "type": "VEC3"
    },
    {
      "bufferView": 2,
      "byteOffset": 108744,
      "componentType": 5126,
      "count": 184,
      "max": [
        1,
        1,
        1
      ],
      "min": [
        -1,
        -1,
        -1
      ],
      "type": "VEC3"
    },
    {
      "bufferView": 3,
      "byteOffset": 71024,
      "componentType": 5126,
      "count": 184,
      "max": [
        0,
        0,
        0,
        1
      ],
      "min": [
        0,
        0,
        0,
        1
      ],
      "type": "VEC4"
    },
    {
      "bufferView": 1,
      "byteOffset": 35512,
      "componentType": 5126,
      "count": 184,
      "max": [
        -0,
        0
      ],
      "min": [
        -0,
        0
      ],
      "type": "VEC2"
    },
    {
      "bufferView": 0,
      "byteOffset": 53952,
      "componentType": 5125,
      "count": 276,
      "max": [
        183
      ],
      "min": [
        0
      ],
      "type": "SCALAR"
    }
  ],
  "asset": {
    "extras": {
      "author": "Zuo Modern (https://sketchfab.com/zuo)",
      "license": "CC-BY-NC-ND-4.0 (http://creativecommons.org/licenses/by-nc-nd/4.0/)",
      "source": "https://sketchfab.com/3d-models/golden-beach-coffee-table-white-703815-2e54d6a7ef46488c9262e05b9a1997e5",
      "title": "Golden Beach Coffee Table White - 703815"
    },
    "generator": "Sketchfab-5.96.0",
    "version": "2.0"
  },
  "bufferViews": [
    {
      "buffer": 0,
      "byteLength": 55056,
      "byteOffset": 0,
      "name": "floatBufferViews",
      "target": 34963
    },
    {
      "buffer": 0,
      "byteLength": 36984,
      "byteOffset": 55056,
      "byteStride": 8,
      "name": "floatBufferViews",
      "target": 34962
    },
    {
      "buffer": 0,
      "byteLength": 110952,
      "byteOffset": 92040,
      "byteStride": 12,
      "name": "floatBufferViews",
      "target": 34962
    },
    {
      "buffer": 0,
      "byteLength": 73968,
      "byteOffset": 202992,
      "byteStride": 16,
      "name": "floatBufferViews",
      "target": 34962
    }
  ],
  "buffers": [
    {
      "byteLength": 276960,
      "uri": "scene.bin"
    }
  ],
  "materials": [
    {
      "doubleSided": true,
      "name": "Material__26",
      "pbrMetallicRoughness": {
        "baseColorFactor": [
          1,
          1,
          1,
          1
        ],
        "metallicFactor": 0.70469697894472061,
        "roughnessFactor": 0.87996613980000005
      }
    },
    {
      "alphaMode": "BLEND",
      "doubleSided": true,
      "emissiveFactor": [
        0,
        0,
        0
      ],
      "name": "wire_137008110",
      "pbrMetallicRoughness": {
        "baseColorFactor": [
          0.26281158173471902,
          0.26281158173471902,
          0.26281158173471902,
          0.74378786954012777
        ],
        "metallicFactor": 0,
        "roughnessFactor": 0.91675550189999999
      }
    }
  ],
  "meshes": [
    {
      "primitives": [
        {
          "attributes": {
            "NORMAL": 1,
            "POSITION": 0,
            "TANGENT": 2,
            "TEXCOORD_0": 3
          },
          "indices": 4,
          "material": 0,
          "mode": 4
        }
      ]
    },
    {
      "primitives": [
        {
          "attributes": {
            "NORMAL": 6,
            "POSITION": 5,
            "TANGENT": 7,
            "TEXCOORD_0": 8
          },
          "indices": 9,
          "material": 1,
          "mode": 4
        }
      ]
    }
  ],
  "nodes": [
    {
      "children": [
        1
      ],
      "name": "RootNode (gltf orientation matrix)",
      "rotation": [
        -0.70710678118654746,
        -0,
        -0,
        0.70710678118654757
      ]
    },
    {
      "children": [
        2
      ],
      "name": "RootNode (model correction matrix)"
    },
    {
      "children": [
        3,
        4
      ],
      "name": "703815.obj.cleaner.materialmerger.gles"
    },
    {
      "mesh": 0,
      "name": ""
    },
    {
      "mesh": 1,
      "name": ""
    }
  ],
  "scene": 0,
  "scenes": [
    {
      "name": "OSG_Scene",
      "nodes": [
        0
      ]
    }
  ]
}

