{
  "accessors": [
    {
      "bufferView": 2,
      "componentType": 5126,
      "count": 829,
      "max": [
        1.75,
        1.4725935459136963,
        1.396069049835205
      ],
      "min": [
        -1.75,
        -2.827406883239746,
        -0.8357420563697815
      ],
      "type": "VEC3"
    },
    {
      "bufferView": 2,
      "byteOffset": 9948,
      "componentType": 5126,
      "count": 829,
      "max": [
        0.9974486827850342,
        1.0,
        1.0
      ],
      "min": [
        -0.9974486827850342,
        -0.9974219799041748,
        -1.0
      ],
      "type": "VEC3"
    },
    {
      "bufferView": 1,
      "componentType": 5126,
      "count": 829,
      "max": [
        1.0,
        0.9404193162918091
      ],
      "min": [
        0.0,
        0.0
      ],
      "type": "VEC2"
    },
    {
      "bufferView": 0,
      "componentType": 5125,
      "count": 3204,
      "type": "SCALAR"
    },
    {
      "bufferView": 2,
      "byteOffset": 19896,
      "componentType": 5126,
      "count": 64,
      "max": [
        1.6394305229187012,
        2.0113742351531982,
        0.14828962087631226
      ],
      "min": [
        -1.6394305229187012,
        -2.0113742351531982,
        -0.14828962087631226
      ],
      "type": "VEC3"
    },
    {
      "bufferView": 2,
      "byteOffset": 20664,
      "componentType": 5126,
      "count": 64,
      "max": [
        0.9807879328727722,
        0.9807879328727722,
        0.9672954678535461
      ],
      "min": [
        -0.9807879328727722,
        -0.9807879328727722,
        0.0
      ],
      "type": "VEC3"
    },
    {
      "bufferView": 1,
      "byteOffset": 6632,
      "componentType": 5126,
      "count": 64,
      "max": [
        0.9999999403953552,
        0.9092144966125488
      ],
      "min": [
        0.0,
        0.0
      ],
      "type": "VEC2"
    },
    {
      "bufferView": 0,
      "byteOffset": 12816,
      "componentType": 5125,
      "count": 198,
      "type": "SCALAR"
    },
    {
      "bufferView": 2,
      "byteOffset": 21432,
      "componentType": 5126,
      "count": 216,
      "max": [
        1.0,
        1.0,
        0.9390242099761963
      ],
      "min": [
        -1.0,
        -1.0,
        -1.0
      ],
      "type": "VEC3"
    },
    {
      "bufferView": 2,
      "byteOffset": 24024,
      "componentType": 5126,
      "count": 216,
      "max": [
        0.9905543923377991,
        0.9905543923377991,
        0.9982544183731079
      ],
      "min": [
        -0.9905543923377991,
        -0.9905543923377991,
        -0.9905543923377991
      ],
      "type": "VEC3"
    },
    {
      "bufferView": 1,
      "byteOffset": 7144,
      "componentType": 5126,
      "count": 216,
      "max": [
        0.9932217597961426,
        1.0
      ],
      "min": [
        0.0,
        0.0
      ],
      "type": "VEC2"
    },
    {
      "bufferView": 0,
      "byteOffset": 13608,
      "componentType": 5125,
      "count": 900,
      "type": "SCALAR"
    },
    {
      "bufferView": 2,
      "byteOffset": 26616,
      "componentType": 5126,
      "count": 220,
      "max": [
        1.0,
        1.0,
        0.945576548576355
      ],
      "min": [
        -1.0,
        -1.0,
        -1.0
      ],
      "type": "VEC3"
    },
    {
      "bufferView": 2,
      "byteOffset": 29256,
      "componentType": 5126,
      "count": 220,
      "max": [
        0.9905543923377991,
        0.9905543923377991,
        0.9975607991218567
      ],
      "min": [
        -0.9905543923377991,
        -0.990557074546814,
        -0.9905543923377991
      ],
      "type": "VEC3"
    },
    {
      "bufferView": 1,
      "byteOffset": 8872,
      "componentType": 5126,
      "count": 220,
      "max": [
        0.9999998807907104,
        0.7477421760559082
      ],
      "min": [
        0.0,
        0.0
      ],
      "type": "VEC2"
    },
    {
      "bufferView": 0,
      "byteOffset": 17208,
      "componentType": 5125,
      "count": 900,
      "type": "SCALAR"
    },
    {
      "bufferView": 2,
      "byteOffset": 31896,
      "componentType": 5126,
      "count": 124,
      "max": [
        1.0,
        0.9866377711296082,
        0.07825241982936859
      ],
      "min": [
        -1.0,
        -1.0133622884750366,
        -0.28688859939575195
      ],
      "type": "VEC3"
    },
    {
      "bufferView": 2,
      "byteOffset": 33384,
      "componentType": 5126,
      "count": 124,
      "max": [
        1.0,
        0.9690582752227783,
        0.9672954678535461
      ],
      "min": [
        -1.0,
        -0.9807879328727722,
        0.0
      ],
      "type": "VEC3"
    },
    {
      "bufferView": 1,
      "byteOffset": 10632,
      "componentType": 5126,
      "count": 124,
      "max": [
        1.0,
        0.6399301290512085
      ],
      "min": [
        0.0,
        0.0
      ],
      "type": "VEC2"
    },
    {
      "bufferView": 0,
      "byteOffset": 20808,
      "componentType": 5125,
      "count": 396,
      "type": "SCALAR"
    }
  ],
  "asset": {
    "extras": {
      "author": "portgl16 (https://sketchfab.com/portgl16)",
      "license": "CC-BY-4.0 (http://creativecommons.org/licenses/by/4.0/)",
      "source": "https://sketchfab.com/3d-models/bed-12735fea0e8c4838a2425a70142f3842",
      "title": "Bed"
    },
    "generator": "Sketchfab-10.65.0",
    "version": "2.0"
  },
  "bufferViews": [
    {
      "buffer": 0,
      "byteLength": 22392,
      "name": "floatBufferViews",
      "target": 34963
    },
    {
      "buffer": 0,
      "byteLength": 11624,
      "byteOffset": 22392,
      "byteStride": 8,
      "name": "floatBufferViews",
      "target": 34962
    },
    {
      "buffer": 0,
      "byteLength": 34872,
      "byteOffset": 34016,
      "byteStride": 12,
      "name": "floatBufferViews",
      "target": 34962
    }
  ],
  "buffers": [
    {
      "byteLength": 68888,
      "uri": "scene.bin"
    }
  ],
  "materials": [
    {
      "doubleSided": true,
      "name": "Material_Bed",
      "pbrMetallicRoughness": {
        "baseColorFactor": [
          0.190178,
          0.190178,
          0.190178,
          1.0
        ],
        "metallicFactor": 0.0
      }
    },
    {
      "doubleSided": true,
      "name": "mattress",
      "pbrMetallicRoughness": {
        "baseColorFactor": [
          0.517333,
          0.517333,
          0.517333,
          1.0
        ],
        "metallicFactor": 0.0
      }
    },
    {
      "doubleSided": true,
      "name": "Pillow",
      "pbrMetallicRoughness": {
        "metallicFactor": 0.0,
        "roughnessFactor": 0.828501410055531
      }
    },
    {
      "doubleSided": true,
      "name": "blanket",
      "pbrMetallicRoughness": {
        "baseColorFactor": [
          0.8,
          0.8,
          0.8,
          1.0
        ],
        "metallicFactor": 0.0,
        "roughnessFactor": 0.8211145618000169
      }
    }
  ],
  "meshes": [
    {
      "name": "Bed_Material Bed_0",
      "primitives": [
        {
          "attributes": {
            "NORMAL": 1,
            "POSITION": 0,
            "TEXCOORD_0": 2
          },
          "indices": 3,
          "material": 0,
          "mode": 4
        }
      ]
    },
    {
      "name": "mattress_mattress_0",
      "primitives": [
        {
          "attributes": {
            "NORMAL": 5,
            "POSITION": 4,
            "TEXCOORD_0": 6
          },
          "indices": 7,
          "material": 1,
          "mode": 4
        }
      ]
    },
    {
      "name": "pillow_Pillow_0",
      "primitives": [
        {
          "attributes": {
            "NORMAL": 9,
            "POSITION": 8,
            "TEXCOORD_0": 10
          },
          "indices": 11,
          "material": 2,
          "mode": 4
        }
      ]
    },
    {
      "name": "pillow.001_Pillow_0",
      "primitives": [
        {
          "attributes": {
            "NORMAL": 13,
            "POSITION": 12,
            "TEXCOORD_0": 14
          },
          "indices": 15,
          "material": 2,
          "mode": 4
        }
      ]
    },
    {
      "name": "blanket_blanket_0",
      "primitives": [
        {
          "attributes": {
            "NORMAL": 17,
            "POSITION": 16,
            "TEXCOORD_0": 18
          },
          "indices": 19,
          "material": 3,
          "mode": 4
        }
      ]
    }
  ],
  "nodes": [
    {
      "children": [
        1
      ],
      "matrix": [
        1.0,
        0.0,
        0.0,
        0.0,
        0.0,
        2.220446049250313e-16,
        -1.0,
        0.0,
        0.0,
        1.0,
        2.220446049250313e-16,
        0.0,
        0.0,
        0.0,
        0.0,
        1.0
      ],
      "name": "Sketchfab_model"
    },
    {
      "children": [
        2
      ],
      "matrix": [
        1.0,
        0.0,
        0.0,
        0.0,
        0.0,
        0.0,
        1.0,
        0.0,
        0.0,
        -1.0,
        0.0,
        0.0,
        0.0,
        0.0,
        0.0,
        1.0
      ],
      "name": "Bed.fbx"
    },
    {
      "children": [
        3,
        5,
        7,
        9,
        11
      ],
      "name": "RootNode"
    },
    {
      "children": [
        4
      ],
      "matrix": [
        100.0,
        0.0,
        0.0,
        0.0,
        0.0,
        -1.629206793918314e-05,
        -99.99999999999868,
        0.0,
        0.0,
        99.99999999999868,
        -1.629206793918314e-05,
        0.0,
        0.0,
        -39.60689926147461,
        -67.74064636230469,
        1.0
      ],
      "name": "Bed"
    },
    {
      "mesh": 0,
      "name": "Bed_Material Bed_0"
    },
    {
      "children": [
        6
      ],
      "matrix": [
        100.0,
        0.0,
        0.0,
        0.0,
        0.0,
        -1.629206793918314e-05,
        -99.99999999999868,
        0.0,
        0.0,
        99.99999999999868,
        -1.629206793918314e-05,
        0.0,
        0.0,
        -20.110103607177734,
        1.9436285495758057,
        1.0
      ],
      "name": "mattress"
    },
    {
      "mesh": 1,
      "name": "mattress_mattress_0"
    },
    {
      "children": [
        8
      ],
      "matrix": [
        70.0,
        0.0,
        0.0,
        0.0,
        -0.0,
        -8.14603396959157e-06,
        -49.99999999999934,
        0.0,
        0.0,
        19.999999999999737,
        -3.2584135878366283e-06,
        0.0,
        -80.08417510986328,
        -1.199544906616211,
        -146.83421325683594,
        1.0
      ],
      "name": "pillow"
    },
    {
      "mesh": 2,
      "name": "pillow_Pillow_0"
    },
    {
      "children": [
        10
      ],
      "matrix": [
        70.0,
        0.0,
        0.0,
        0.0,
        0.0,
        -8.14603396959157e-06,
        -49.99999999999934,
        0.0,
        0.0,
        19.999999999999737,
        -3.2584135878366283e-06,
        0.0,
        82.21121215820313,
        -1.199544906616211,
        -146.83421325683594,
        1.0
      ],
      "name": "pillow.001"
    },
    {
      "mesh": 3,
      "name": "pillow.001_Pillow_0"
    },
    {
      "children": [
        12
      ],
      "matrix": [
        165.74693298339844,
        0.0,
        0.0,
        0.0,
        0.0,
        -2.4354483745139097e-05,
        -149.4867553710918,
        0.0,
        0.0,
        101.08453369140491,
        -1.646876090501038e-05,
        0.0,
        0.2649664878845215,
        -4.187450408935547,
        53.27030563354492,
        1.0
      ],
      "name": "blanket"
    },
    {
      "mesh": 4,
      "name": "blanket_blanket_0"
    }
  ],
  "scene": 0,
  "scenes": [
    {
      "name": "Sketchfab_Scene",
      "nodes": [
        0
      ]
    }
  ]
}
