{
  "accessors": [
    {
      "bufferView": 1,
      "componentType": 5126,
      "count": 31698,
      "max": [
        0.42552798986434937,
        0.73000001907348633,
        0.42552798986434937
      ],
      "min": [
        -0.42552798986434937,
        0.0060000000521540642,
        -0.42552798986434937
      ],
      "type": "VEC3"
    },
    {
      "bufferView": 1,
      "byteOffset": 380376,
      "componentType": 5126,
      "count": 31698,
      "max": [
        1,
        1,
        1
      ],
      "min": [
        -1,
        -1,
        -1
      ],
      "type": "VEC3"
    },
    {
      "bufferView": 2,
      "componentType": 5126,
      "count": 31698,
      "max": [
        1,
        1,
        1,
        1
      ],
      "min": [
        -1,
        -1,
        -1,
        -1
      ],
      "type": "VEC4"
    },
    {
      "bufferView": 0,
      "componentType": 5125,
      "count": 139350,
      "max": [
        31697
      ],
      "min": [
        0
      ],
      "type": "SCALAR"
    },
    {
      "bufferView": 1,
      "byteOffset": 760752,
      "componentType": 5126,
      "count": 2018,
      "max": [
        0.64999997615814209,
        0.75,
        0.64999997615814209
      ],
      "min": [
        -0.64999997615814209,
        0.74000000953674316,
        -0.64999997615814209
      ],
      "type": "VEC3"
    },
    {
      "bufferView": 1,
      "byteOffset": 784968,
      "componentType": 5126,
      "count": 2018,
      "max": [
        1,
        1,
        1
      ],
      "min": [
        -1,
        -1,
        -1
      ],
      "type": "VEC3"
    },
    {
      "bufferView": 2,
      "byteOffset": 507168,
      "componentType": 5126,
      "count": 2018,
      "max": [
        0.3554728627204895,
        0.99998843669891357,
        5.2103304309936149e-11,
        1
      ],
      "min": [
        -0.3235400915145874,
        -0.99998348951339722,
        -0.99998998641967773,
        -1
      ],
      "type": "VEC4"
    },
    {
      "bufferView": 0,
      "byteOffset": 557400,
      "componentType": 5125,
      "count": 12096,
      "max": [
        2017
      ],
      "min": [
        0
      ],
      "type": "SCALAR"
    },
    {
      "bufferView": 1,
      "byteOffset": 809184,
      "componentType": 5126,
      "count": 560,
      "max": [
        0.40687400102615356,
        0.0060000098310410976,
        0.40687400102615356
      ],
      "min": [
        -0.40687400102615356,
        3.0004799555172212e-05,
        -0.40687400102615356
      ],
      "type": "VEC3"
    },
    {
      "bufferView": 1,
      "byteOffset": 815904,
      "componentType": 5126,
      "count": 560,
      "max": [
        0.99517422914505005,
        1,
        0.99517422914505005
      ],
      "min": [
        -0.99517422914505005,
        -0.99570810794830322,
        -0.99517422914505005
      ],
      "type": "VEC3"
    },
    {
      "bufferView": 2,
      "byteOffset": 539456,
      "componentType": 5126,
      "count": 560,
      "max": [
        0,
        0,
        0,
        1
      ],
      "min": [
        0,
        0,
        0,
        1
      ],
      "type": "VEC4"
    },
    {
      "bufferView": 0,
      "byteOffset": 605784,
      "componentType": 5125,
      "count": 2832,
      "max": [
        559
      ],
      "min": [
        0
      ],
      "type": "SCALAR"
    },
    {
      "bufferView": 1,
      "byteOffset": 822624,
      "componentType": 5126,
      "count": 34756,
      "max": [
        0.37551099061965942,
        0.73989999294281006,
        0.37551099061965942
      ],
      "min": [
        -0.37551099061965942,
        0.73000001907348633,
        -0.37551099061965942
      ],
      "type": "VEC3"
    },
    {
      "bufferView": 1,
      "byteOffset": 1239696,
      "componentType": 5126,
      "count": 34756,
      "max": [
        1,
        1,
        1
      ],
      "min": [
        -1,
        -1,
        -1
      ],
      "type": "VEC3"
    },
    {
      "bufferView": 2,
      "byteOffset": 548416,
      "componentType": 5126,
      "count": 34756,
      "max": [
        0.99949204921722412,
        0.47332492470741272,
        0.9994921088218689,
        1
      ],
      "min": [
        -0.9994921088218689,
        -0.47332483530044556,
        -0.99949204921722412,
        -1
      ],
      "type": "VEC4"
    },
    {
      "bufferView": 0,
      "byteOffset": 617112,
      "componentType": 5125,
      "count": 164688,
      "max": [
        34755
      ],
      "min": [
        0
      ],
      "type": "SCALAR"
    }
  ],
  "asset": {
    "extras": {
      "author": "BertO (https://sketchfab.com/bertosalotti)",
      "license": "CC-BY-NC-ND-4.0 (http://creativecommons.org/licenses/by-nc-nd/4.0/)",
      "source": "https://sketchfab.com/models/fdb3045312c041689a113eaf2f45fcfb",
      "title": "Ring Round Table"
    },
    "generator": "Sketchfab-3.18.7",
    "version": "2.0"
  },
  "bufferViews": [
    {
      "buffer": 0,
      "byteLength": 1275864,
      "byteOffset": 0,
      "name": "floatBufferViews",
      "target": 34963
    },
    {
      "buffer": 0,
      "byteLength": 1656768,
      "byteOffset": 1275864,
      "byteStride": 12,
      "name": "floatBufferViews",
      "target": 34962
    },
    {
      "buffer": 0,
      "byteLength": 1104512,
      "byteOffset": 2932632,
      "byteStride": 16,
      "name": "floatBufferViews",
      "target": 34962
    }
  ],
  "buffers": [
    {
      "byteLength": 4037144,
      "uri": "scene.bin"
    }
  ],
  "materials": [
    {
      "doubleSided": true,
      "name": "Metallo_gambe",
      "pbrMetallicRoughness": {
        "baseColorFactor": [
          0.120658,
          0.12064999999999999,
          0.120654,
          1
        ],
        "metallicFactor": 0.84999999999999998,
        "roughnessFactor": 0.20000000000000001
      }
    },
    {
      "alphaMode": "BLEND",
      "doubleSided": true,
      "emissiveFactor": [
        0,
        0,
        0
      ],
      "name": "vetro",
      "pbrMetallicRoughness": {
        "baseColorFactor": [
          0.52796705150000001,
          0.89008074449999997,
          0.8928293249,
          0.050000000000000003
        ],
        "metallicFactor": 0,
        "roughnessFactor": 0.5
      }
    },
    {
      "doubleSided": true,
      "emissiveFactor": [
        0,
        0,
        0
      ],
      "name": "Gommini",
      "pbrMetallicRoughness": {
        "baseColorFactor": [
          0.120658,
          0.12064999999999999,
          0.120654,
          1
        ],
        "metallicFactor": 0,
        "roughnessFactor": 0.59999999999999998
      }
    },
    {
      "doubleSided": true,
      "emissiveFactor": [
        0,
        0,
        0
      ],
      "name": "Render",
      "pbrMetallicRoughness": {
        "baseColorFactor": [
          0.153889,
          0.15387899999999999,
          0.15388399999999999,
          1
        ],
        "metallicFactor": 0,
        "roughnessFactor": 0.59999999999999998
      }
    }
  ],
  "meshes": [
    {
      "name": "Material-Metallo_gambe",
      "primitives": [
        {
          "attributes": {
            "NORMAL": 1,
            "POSITION": 0,
            "TANGENT": 2
          },
          "indices": 3,
          "material": 0,
          "mode": 4
        }
      ]
    },
    {
      "name": "Material-vetro",
      "primitives": [
        {
          "attributes": {
            "NORMAL": 5,
            "POSITION": 4,
            "TANGENT": 6
          },
          "indices": 7,
          "material": 1,
          "mode": 4
        }
      ]
    },
    {
      "name": "Material-Gommini",
      "primitives": [
        {
          "attributes": {
            "NORMAL": 9,
            "POSITION": 8,
            "TANGENT": 10
          },
          "indices": 11,
          "material": 2,
          "mode": 4
        }
      ]
    },
    {
      "name": "Material-Cromato",
      "primitives": [
        {
          "attributes": {
            "NORMAL": 13,
            "POSITION": 12,
            "TANGENT": 14
          },
          "indices": 15,
          "material": 3,
          "mode": 4
        }
      ]
    }
  ],
  "nodes": [
    {
      "children": [
        1
      ],
      "name": "RootNode (gltf orientation matrix)",
      "rotation": [
        -0.70710678118654746,
        -0,
        -0,
        0.70710678118654757
      ]
    },
    {
      "children": [
        2
      ],
      "name": "RootNode (model correction matrix)"
    },
    {
      "children": [
        3,
        5,
        7,
        12
      ],
      "matrix": [
        1,
        0,
        0,
        0,
        0,
        -4.3711390063094768e-08,
        0.999999999999999,
        0,
        0,
        -0.999999999999999,
        -4.3711390063094768e-08,
        0,
        0,
        0,
        0,
        1
      ],
      "name": "Collada visual scene group"
    },
    {
      "children": [
        4
      ],
      "matrix": [
        0.70710678118654746,
        0,
        0.70710678118654757,
        0,
        0.35355339059327373,
        0.86602540378443871,
        -0.35355339059327368,
        0,
        -0.61237243569579458,
        0.49999999999999994,
        0.61237243569579447,
        0,
        -2,
        2,
        2,
        1
      ],
      "name": "Directional_Light"
    },
    {
      "name": "Directional_Light"
    },
    {
      "children": [
        6
      ],
      "matrix": [
        1,
        0,
        0,
        0,
        0,
        0.99619469809174555,
        -0.087155742747658166,
        0,
        0,
        0.087155742747658166,
        0.99619469809174555,
        0,
        0,
        0.75,
        4,
        1
      ],
      "name": "Camera"
    },
    {
      "name": "Camera-camera003"
    },
    {
      "children": [
        8,
        9,
        10,
        11
      ],
      "name": "Mesh"
    },
    {
      "mesh": 0,
      "name": "Material-Metallo_gambe"
    },
    {
      "mesh": 1,
      "name": "Material-vetro"
    },
    {
      "mesh": 2,
      "name": "Material-Gommini"
    },
    {
      "mesh": 3,
      "name": "Material-Cromato"
    },
    {
      "children": [
        13
      ],
      "name": "Render"
    },
    {
      "name": "Render"
    }
  ],
  "scene": 0,
  "scenes": [
    {
      "name": "OSG_Scene",
      "nodes": [
        0
      ]
    }
  ]
}

