{
  "accessors": [
    {
      "bufferView": 2,
      "componentType": 5126,
      "count": 273,
      "max": [
        1.0219449996948242,
        0.47224000096321106,
        0.039540000259876251
      ],
      "min": [
        0.78437900543212891,
        -0.01154599990695715,
        -0.036490000784397125
      ],
      "type": "VEC3"
    },
    {
      "bufferView": 2,
      "byteOffset": 3276,
      "componentType": 5126,
      "count": 273,
      "max": [
        0.99253034591674805,
        0.57966607809066772,
        0.99999898672103882
      ],
      "min": [
        -0.99220073223114014,
        -0.57001882791519165,
        -0.99999898672103882
      ],
      "type": "VEC3"
    },
    {
      "bufferView": 1,
      "componentType": 5126,
      "count": 273,
      "max": [
        0.046906232833862305,
        0.062190473079681396
      ],
      "min": [
        0.026033580303192139,
        0.052964113652706146
      ],
      "type": "VEC2"
    },
    {
      "bufferView": 0,
      "componentType": 5125,
      "count": 1440,
      "max": [
        272
      ],
      "min": [
        0
      ],
      "type": "SCALAR"
    },
    {
      "bufferView": 2,
      "byteOffset": 6552,
      "componentType": 5126,
      "count": 1001,
      "max": [
        1.0265769958496094,
        2.6905670166015625,
        0.041563000530004501
      ],
      "min": [
        -0.43215298652648926,
        -0.039627999067306519,
        -0.050071001052856445
      ],
      "type": "VEC3"
    },
    {
      "bufferView": 2,
      "byteOffset": 18564,
      "componentType": 5126,
      "count": 1001,
      "max": [
        0.99953502416610718,
        0.99437713623046875,
        0.99999946355819702
      ],
      "min": [
        -0.99904537200927734,
        -0.99516749382019043,
        -0.99999302625656128
      ],
      "type": "VEC3"
    },
    {
      "bufferView": 1,
      "byteOffset": 2184,
      "componentType": 5126,
      "count": 1001,
      "max": [
        0.16494771838188171,
        0.25234121084213257
      ],
      "min": [
        0.15396091341972351,
        0.042362615466117859
      ],
      "type": "VEC2"
    },
    {
      "bufferView": 0,
      "byteOffset": 5760,
      "componentType": 5125,
      "count": 5442,
      "max": [
        1000
      ],
      "min": [
        0
      ],
      "type": "SCALAR"
    },
    {
      "bufferView": 2,
      "byteOffset": 30576,
      "componentType": 5126,
      "count": 2130,
      "max": [
        -0.10505175590515137,
        2.6208932399749756,
        0.019550085067749023
      ],
      "min": [
        -0.23192626237869263,
        2.5519390106201172,
        -0.025499880313873291
      ],
      "type": "VEC3"
    },
    {
      "bufferView": 2,
      "byteOffset": 56136,
      "componentType": 5126,
      "count": 2130,
      "max": [
        1,
        0.99685573577880859,
        1
      ],
      "min": [
        -1,
        -1,
        -1
      ],
      "type": "VEC3"
    },
    {
      "bufferView": 1,
      "byteOffset": 10192,
      "componentType": 5126,
      "count": 2130,
      "max": [
        0.9921875,
        0.023085936903953552
      ],
      "min": [
        0.0078125,
        0.0078125
      ],
      "type": "VEC2"
    },
    {
      "bufferView": 0,
      "byteOffset": 27528,
      "componentType": 5125,
      "count": 10410,
      "max": [
        2129
      ],
      "min": [
        0
      ],
      "type": "SCALAR"
    },
    {
      "bufferView": 2,
      "byteOffset": 81696,
      "componentType": 5126,
      "count": 570,
      "max": [
        -0.15595400333404541,
        2.0140409469604492,
        0.79620200395584106
      ],
      "min": [
        -0.63459300994873047,
        0.47383901476860046,
        -0.7960439920425415
      ],
      "type": "VEC3"
    },
    {
      "bufferView": 2,
      "byteOffset": 88536,
      "componentType": 5126,
      "count": 570,
      "max": [
        0.99978446960449219,
        0.99864286184310913,
        0.99746185541152954
      ],
      "min": [
        -0.98323476314544678,
        -0.98803675174713135,
        -0.99756288528442383
      ],
      "type": "VEC3"
    },
    {
      "bufferView": 1,
      "byteOffset": 27232,
      "componentType": 5126,
      "count": 570,
      "max": [
        0.26472842693328857,
        0.20638090372085571
      ],
      "min": [
        0.25531578063964844,
        0.0078125
      ],
      "type": "VEC2"
    },
    {
      "bufferView": 0,
      "byteOffset": 69168,
      "componentType": 5125,
      "count": 3024,
      "max": [
        569
      ],
      "min": [
        0
      ],
      "type": "SCALAR"
    },
    {
      "bufferView": 2,
      "byteOffset": 95376,
      "componentType": 5126,
      "count": 682,
      "max": [
        1.0465619564056396,
        0.046656001359224319,
        1.0452680587768555
      ],
      "min": [
        -1.046502947807312,
        -0.046638000756502151,
        -1.0462690591812134
      ],
      "type": "VEC3"
    },
    {
      "bufferView": 2,
      "byteOffset": 103560,
      "componentType": 5126,
      "count": 682,
      "max": [
        0.99962300062179565,
        0.95799076557159424,
        0.99999910593032837
      ],
      "min": [
        -0.99962174892425537,
        -0.95718300342559814,
        -0.99998974800109863
      ],
      "type": "VEC3"
    },
    {
      "bufferView": 1,
      "byteOffset": 31792,
      "componentType": 5126,
      "count": 682,
      "max": [
        0.15082436800003052,
        0.26750469207763672
      ],
      "min": [
        0.13839705288410187,
        0.0078125
      ],
      "type": "VEC2"
    },
    {
      "bufferView": 0,
      "byteOffset": 81264,
      "componentType": 5125,
      "count": 3660,
      "max": [
        681
      ],
      "min": [
        0
      ],
      "type": "SCALAR"
    },
    {
      "bufferView": 2,
      "byteOffset": 111744,
      "componentType": 5126,
      "count": 5598,
      "max": [
        -0.13685500621795654,
        2.5974810123443604,
        0.060442999005317688
      ],
      "min": [
        -0.19722799956798553,
        1.9990600347518921,
        -0.0604420006275177
      ],
      "type": "VEC3"
    },
    {
      "bufferView": 2,
      "byteOffset": 178920,
      "componentType": 5126,
      "count": 5598,
      "max": [
        0.99993264675140381,
        1,
        0.99999076128005981
      ],
      "min": [
        -0.99993276596069336,
        -1,
        -0.99999076128005981
      ],
      "type": "VEC3"
    },
    {
      "bufferView": 1,
      "byteOffset": 37248,
      "componentType": 5126,
      "count": 5598,
      "max": [
        0.246853306889534,
        0.2008628249168396
      ],
      "min": [
        0.0078125,
        0.071339845657348633
      ],
      "type": "VEC2"
    },
    {
      "bufferView": 0,
      "byteOffset": 95904,
      "componentType": 5125,
      "count": 30852,
      "max": [
        5597
      ],
      "min": [
        0
      ],
      "type": "SCALAR"
    },
    {
      "bufferView": 2,
      "byteOffset": 246096,
      "componentType": 5126,
      "count": 540,
      "max": [
        0.85246902704238892,
        0.041473999619483948,
        0.6214669942855835
      ],
      "min": [
        0.46674200892448425,
        -0.043003998696804047,
        -0.61828100681304932
      ],
      "type": "VEC3"
    },
    {
      "bufferView": 2,
      "byteOffset": 252576,
      "componentType": 5126,
      "count": 540,
      "max": [
        0.98816066980361938,
        0.99994802474975586,
        0.77158129215240479
      ],
      "min": [
        -0.99786853790283203,
        -0.99367612600326538,
        -0.76942020654678345
      ],
      "type": "VEC3"
    },
    {
      "bufferView": 1,
      "byteOffset": 82032,
      "componentType": 5126,
      "count": 540,
      "max": [
        0.2255825400352478,
        0.12066608667373657
      ],
      "min": [
        0.16800636053085327,
        0.10975329577922821
      ],
      "type": "VEC2"
    },
    {
      "bufferView": 0,
      "byteOffset": 219312,
      "componentType": 5125,
      "count": 2958,
      "max": [
        539
      ],
      "min": [
        0
      ],
      "type": "SCALAR"
    },
    {
      "bufferView": 2,
      "byteOffset": 259056,
      "componentType": 5126,
      "count": 59669,
      "max": [
        0.33839035034179688,
        1.4791717529296875,
        0.7125244140625
      ],
      "min": [
        -0.73606109619140625,
        0.49706649780273438,
        -0.67160797119140625
      ],
      "type": "VEC3"
    },
    {
      "bufferView": 2,
      "byteOffset": 975084,
      "componentType": 5126,
      "count": 59669,
      "max": [
        0.99993753433227539,
        0.99998372793197632,
        0.99997919797897339
      ],
      "min": [
        -0.9999726414680481,
        -0.99999767541885376,
        -0.99998903274536133
      ],
      "type": "VEC3"
    },
    {
      "bufferView": 1,
      "byteOffset": 86352,
      "componentType": 5126,
      "count": 59669,
      "max": [
        0.24840700626373291,
        0.19568949937820435
      ],
      "min": [
        0.0078125,
        0.091909214854240417
      ],
      "type": "VEC2"
    },
    {
      "bufferView": 0,
      "byteOffset": 231144,
      "componentType": 5125,
      "count": 341364,
      "max": [
        59668
      ],
      "min": [
        0
      ],
      "type": "SCALAR"
    },
    {
      "bufferView": 2,
      "byteOffset": 1691112,
      "componentType": 5126,
      "count": 35140,
      "max": [
        0.47927644848823547,
        1.980297327041626,
        0.77300512790679932
      ],
      "min": [
        -0.57194387912750244,
        0.46770235896110535,
        -0.77300542593002319
      ],
      "type": "VEC3"
    },
    {
      "bufferView": 2,
      "byteOffset": 2112792,
      "componentType": 5126,
      "count": 35140,
      "max": [
        0.99968856573104858,
        0.99950367212295532,
        0.99999791383743286
      ],
      "min": [
        -0.99962657690048218,
        -0.99947458505630493,
        -0.99999785423278809
      ],
      "type": "VEC3"
    },
    {
      "bufferView": 1,
      "byteOffset": 563704,
      "componentType": 5126,
      "count": 35140,
      "max": [
        0.7878602147102356,
        0.45685121417045593
      ],
      "min": [
        0.0078125,
        0.0078125
      ],
      "type": "VEC2"
    },
    {
      "bufferView": 0,
      "byteOffset": 1596600,
      "componentType": 5125,
      "count": 94872,
      "max": [
        35139
      ],
      "min": [
        0
      ],
      "type": "SCALAR"
    }
  ],
  "asset": {
    "extras": {
      "author": "a.shevchuk (https://sketchfab.com/alex.shevchuk)",
      "license": "CC-BY-4.0 (http://creativecommons.org/licenses/by/4.0/)",
      "source": "https://sketchfab.com/3d-models/basket-swing-chair-92463f2b44624180a4ed8488ce08eb83",
      "title": "Basket Swing Chair"
    },
    "generator": "Sketchfab-9.62.3",
    "version": "2.0"
  },
  "bufferViews": [
    {
      "buffer": 0,
      "byteLength": 1976088,
      "byteOffset": 0,
      "name": "floatBufferViews",
      "target": 34963
    },
    {
      "buffer": 0,
      "byteLength": 844824,
      "byteOffset": 1976088,
      "byteStride": 8,
      "name": "floatBufferViews",
      "target": 34962
    },
    {
      "buffer": 0,
      "byteLength": 2534472,
      "byteOffset": 2820912,
      "byteStride": 12,
      "name": "floatBufferViews",
      "target": 34962
    }
  ],
  "buffers": [
    {
      "byteLength": 5355384,
      "uri": "scene.bin"
    }
  ],
  "materials": [
    {
      "doubleSided": true,
      "name": "chair1",
      "pbrMetallicRoughness": {
        "baseColorFactor": [
          0.042311410600000002,
          0.042311410600000002,
          0.042311410600000002,
          1
        ],
        "metallicFactor": 1,
        "roughnessFactor": 0.50028424810000005
      }
    },
    {
      "doubleSided": true,
      "name": "Cushion",
      "pbrMetallicRoughness": {
        "baseColorFactor": [
          0.0048472641,
          0.1551925042,
          0.53056726529999998,
          1
        ],
        "metallicFactor": 0,
        "roughnessFactor": 0.59756701869999995
      }
    }
  ],
  "meshes": [
    {
      "name": "part1_chair1_0",
      "primitives": [
        {
          "attributes": {
            "NORMAL": 1,
            "POSITION": 0,
            "TEXCOORD_0": 2
          },
          "indices": 3,
          "material": 0,
          "mode": 4
        }
      ]
    },
    {
      "name": "part2_chair1_0",
      "primitives": [
        {
          "attributes": {
            "NORMAL": 5,
            "POSITION": 4,
            "TEXCOORD_0": 6
          },
          "indices": 7,
          "material": 0,
          "mode": 4
        }
      ]
    },
    {
      "name": "part4_chair1_0",
      "primitives": [
        {
          "attributes": {
            "NORMAL": 9,
            "POSITION": 8,
            "TEXCOORD_0": 10
          },
          "indices": 11,
          "material": 0,
          "mode": 4
        }
      ]
    },
    {
      "name": "part5_chair1_0",
      "primitives": [
        {
          "attributes": {
            "NORMAL": 13,
            "POSITION": 12,
            "TEXCOORD_0": 14
          },
          "indices": 15,
          "material": 0,
          "mode": 4
        }
      ]
    },
    {
      "name": "part6_chair1_0",
      "primitives": [
        {
          "attributes": {
            "NORMAL": 17,
            "POSITION": 16,
            "TEXCOORD_0": 18
          },
          "indices": 19,
          "material": 0,
          "mode": 4
        }
      ]
    },
    {
      "name": "part7_chair1_0",
      "primitives": [
        {
          "attributes": {
            "NORMAL": 21,
            "POSITION": 20,
            "TEXCOORD_0": 22
          },
          "indices": 23,
          "material": 0,
          "mode": 4
        }
      ]
    },
    {
      "name": "part8_chair1_0",
      "primitives": [
        {
          "attributes": {
            "NORMAL": 25,
            "POSITION": 24,
            "TEXCOORD_0": 26
          },
          "indices": 27,
          "material": 0,
          "mode": 4
        }
      ]
    },
    {
      "name": "cushion_Cushion_0",
      "primitives": [
        {
          "attributes": {
            "NORMAL": 29,
            "POSITION": 28,
            "TEXCOORD_0": 30
          },
          "indices": 31,
          "material": 1,
          "mode": 4
        }
      ]
    },
    {
      "name": "basket_chair1_0",
      "primitives": [
        {
          "attributes": {
            "NORMAL": 33,
            "POSITION": 32,
            "TEXCOORD_0": 34
          },
          "indices": 35,
          "material": 0,
          "mode": 4
        }
      ]
    }
  ],
  "nodes": [
    {
      "children": [
        1
      ],
      "name": "RootNode (gltf orientation matrix)",
      "rotation": [
        -0.70710678118654746,
        -0,
        -0,
        0.70710678118654757
      ]
    },
    {
      "children": [
        2
      ],
      "name": "RootNode (model correction matrix)"
    },
    {
      "children": [
        3
      ],
      "matrix": [
        1,
        0,
        0,
        0,
        0,
        0,
        1,
        0,
        0,
        -1,
        0,
        0,
        0,
        0,
        0,
        1
      ],
      "name": "02350a10a0584a0c8d828a372daf4024.fbx"
    },
    {
      "children": [
        4
      ],
      "name": "RootNode"
    },
    {
      "children": [
        5,
        7,
        9,
        11,
        13,
        15,
        17,
        19,
        21
      ],
      "name": "Swing_chair"
    },
    {
      "children": [
        6
      ],
      "name": "part1"
    },
    {
      "mesh": 0,
      "name": "part1_chair1_0"
    },
    {
      "children": [
        8
      ],
      "name": "part2"
    },
    {
      "mesh": 1,
      "name": "part2_chair1_0"
    },
    {
      "children": [
        10
      ],
      "name": "part4"
    },
    {
      "mesh": 2,
      "name": "part4_chair1_0"
    },
    {
      "children": [
        12
      ],
      "name": "part5"
    },
    {
      "mesh": 3,
      "name": "part5_chair1_0"
    },
    {
      "children": [
        14
      ],
      "name": "part6"
    },
    {
      "mesh": 4,
      "name": "part6_chair1_0"
    },
    {
      "children": [
        16
      ],
      "name": "part7"
    },
    {
      "mesh": 5,
      "name": "part7_chair1_0"
    },
    {
      "children": [
        18
      ],
      "name": "part8"
    },
    {
      "mesh": 6,
      "name": "part8_chair1_0"
    },
    {
      "children": [
        20
      ],
      "name": "cushion"
    },
    {
      "mesh": 7,
      "name": "cushion_Cushion_0"
    },
    {
      "children": [
        22
      ],
      "name": "basket"
    },
    {
      "mesh": 8,
      "name": "basket_chair1_0"
    }
  ],
  "scene": 0,
  "scenes": [
    {
      "name": "OSG_Scene",
      "nodes": [
        0
      ]
    }
  ]
}

