{
  "accessors": [
    {
      "bufferView": 2,
      "componentType": 5126,
      "count": 1128,
      "max": [
        27.405300140380859,
        177.63699340820312,
        361.42300415039062
      ],
      "min": [
        -30.153799057006836,
        120.50700378417969,
        303.864013671875
      ],
      "type": "VEC3"
    },
    {
      "bufferView": 2,
      "byteOffset": 13536,
      "componentType": 5126,
      "count": 1128,
      "max": [
        1,
        0.99131745100021362,
        0.99144488573074341
      ],
      "min": [
        -1,
        -0.99131745100021362,
        -0.99144488573074341
      ],
      "type": "VEC3"
    },
    {
      "bufferView": 1,
      "componentType": 5126,
      "count": 1128,
      "max": [
        33.5,
        33.5
      ],
      "min": [
        -26.753499984741211,
        -23.287900924682617
      ],
      "type": "VEC2"
    },
    {
      "bufferView": 0,
      "componentType": 5125,
      "count": 1650,
      "max": [
        1127
      ],
      "min": [
        0
      ],
      "type": "SCALAR"
    },
    {
      "bufferView": 2,
      "byteOffset": 27072,
      "componentType": 5126,
      "count": 244,
      "max": [
        29.378499984741211,
        221.22000122070312,
        375.00201416015625
      ],
      "min": [
        -35.401100158691406,
        90.494003295898438,
        14.897299766540527
      ],
      "type": "VEC3"
    },
    {
      "bufferView": 2,
      "byteOffset": 30000,
      "componentType": 5126,
      "count": 244,
      "max": [
        1,
        1,
        1
      ],
      "min": [
        -1,
        -1,
        -0.73131436109542847
      ],
      "type": "VEC3"
    },
    {
      "bufferView": 1,
      "byteOffset": 9024,
      "componentType": 5126,
      "count": 244,
      "max": [
        16.826999664306641,
        30.819299697875977
      ],
      "min": [
        -16.855800628662109,
        1.2414400577545166
      ],
      "type": "VEC2"
    },
    {
      "bufferView": 0,
      "byteOffset": 6600,
      "componentType": 5125,
      "count": 432,
      "max": [
        243
      ],
      "min": [
        0
      ],
      "type": "SCALAR"
    },
    {
      "bufferView": 2,
      "byteOffset": 32928,
      "componentType": 5126,
      "count": 1248,
      "max": [
        81.808502197265625,
        222.39199829101562,
        418.14898681640625
      ],
      "min": [
        -82.469497680664062,
        -40.571300506591797,
        -5.5
      ],
      "type": "VEC3"
    },
    {
      "bufferView": 2,
      "byteOffset": 47904,
      "componentType": 5126,
      "count": 1248,
      "max": [
        1,
        1,
        1
      ],
      "min": [
        -1,
        -1,
        -0.99883222579956055
      ],
      "type": "VEC3"
    },
    {
      "bufferView": 1,
      "byteOffset": 10976,
      "componentType": 5126,
      "count": 1248,
      "max": [
        16.80109977722168,
        33.130500793457031
      ],
      "min": [
        -16.876699447631836,
        -0.648826003074646
      ],
      "type": "VEC2"
    },
    {
      "bufferView": 0,
      "byteOffset": 8328,
      "componentType": 5125,
      "count": 2010,
      "max": [
        1247
      ],
      "min": [
        0
      ],
      "type": "SCALAR"
    },
    {
      "bufferView": 2,
      "byteOffset": 62880,
      "componentType": 5126,
      "count": 1823,
      "max": [
        81.808502197265625,
        222.39199829101562,
        398.39300537109375
      ],
      "min": [
        -82.469497680664062,
        -40.571300506591797,
        -5.5
      ],
      "type": "VEC3"
    },
    {
      "bufferView": 2,
      "byteOffset": 84756,
      "componentType": 5126,
      "count": 1823,
      "max": [
        1,
        1,
        1
      ],
      "min": [
        -1,
        -1,
        -1
      ],
      "type": "VEC3"
    },
    {
      "bufferView": 1,
      "byteOffset": 20960,
      "componentType": 5126,
      "count": 1823,
      "max": [
        130.65499877929688,
        379.77801513671875
      ],
      "min": [
        -128.84100341796875,
        -40.571300506591797
      ],
      "type": "VEC2"
    },
    {
      "bufferView": 0,
      "byteOffset": 16368,
      "componentType": 5125,
      "count": 3282,
      "max": [
        1822
      ],
      "min": [
        0
      ],
      "type": "SCALAR"
    }
  ],
  "asset": {
    "extras": {
      "author": "kelseysmith1028 (https://sketchfab.com/kelseysmith1028)",
      "license": "CC-BY-4.0 (http://creativecommons.org/licenses/by/4.0/)",
      "source": "https://sketchfab.com/3d-models/modern-black-table-lamp-eb5bdce013e2406ca66404325589f15d",
      "title": "Modern Black Table Lamp"
    },
    "generator": "Sketchfab-9.42.0",
    "version": "2.0"
  },
  "bufferViews": [
    {
      "buffer": 0,
      "byteLength": 29496,
      "byteOffset": 0,
      "name": "floatBufferViews",
      "target": 34963
    },
    {
      "buffer": 0,
      "byteLength": 35544,
      "byteOffset": 29496,
      "byteStride": 8,
      "name": "floatBufferViews",
      "target": 34962
    },
    {
      "buffer": 0,
      "byteLength": 106632,
      "byteOffset": 65040,
      "byteStride": 12,
      "name": "floatBufferViews",
      "target": 34962
    }
  ],
  "buffers": [
    {
      "byteLength": 171672,
      "uri": "scene.bin"
    }
  ],
  "materials": [
    {
      "doubleSided": true,
      "name": "Color_D01",
      "pbrMetallicRoughness": {
        "baseColorFactor": [
          0.95236309765817651,
          0.82308160396445074,
          0.27242288070741721,
          1
        ],
        "metallicFactor": 0,
        "roughnessFactor": 0.28214635944041155
      }
    },
    {
      "doubleSided": true,
      "name": "FrontColor",
      "pbrMetallicRoughness": {
        "baseColorFactor": [
          1,
          1,
          1,
          1
        ],
        "metallicFactor": 0,
        "roughnessFactor": 0.59999999999999998
      }
    },
    {
      "doubleSided": true,
      "name": "Granite_Dark_Gray",
      "pbrMetallicRoughness": {
        "baseColorFactor": [
          0,
          0,
          0,
          1
        ],
        "metallicFactor": 0.30513711611827304,
        "roughnessFactor": 0.59999999999999998
      }
    },
    {
      "doubleSided": true,
      "name": "Metal_Silver",
      "pbrMetallicRoughness": {
        "baseColorFactor": [
          0.38177611602743844,
          0.3743416526406208,
          0.3743416526406208,
          1
        ],
        "metallicFactor": 0.56005026356732079,
        "roughnessFactor": 0.19717531029072899
      }
    }
  ],
  "meshes": [
    {
      "primitives": [
        {
          "attributes": {
            "NORMAL": 1,
            "POSITION": 0,
            "TEXCOORD_0": 2
          },
          "indices": 3,
          "material": 0,
          "mode": 4
        }
      ]
    },
    {
      "primitives": [
        {
          "attributes": {
            "NORMAL": 5,
            "POSITION": 4,
            "TEXCOORD_0": 6
          },
          "indices": 7,
          "material": 3,
          "mode": 4
        }
      ]
    },
    {
      "primitives": [
        {
          "attributes": {
            "NORMAL": 9,
            "POSITION": 8,
            "TEXCOORD_0": 10
          },
          "indices": 11,
          "material": 2,
          "mode": 4
        }
      ]
    },
    {
      "primitives": [
        {
          "attributes": {
            "NORMAL": 13,
            "POSITION": 12,
            "TEXCOORD_0": 14
          },
          "indices": 15,
          "material": 1,
          "mode": 4
        }
      ]
    }
  ],
  "nodes": [
    {
      "children": [
        1
      ],
      "name": "RootNode (gltf orientation matrix)",
      "rotation": [
        -0.70710678118654746,
        -0,
        -0,
        0.70710678118654757
      ]
    },
    {
      "children": [
        2
      ],
      "name": "RootNode (model correction matrix)"
    },
    {
      "children": [
        3,
        4,
        5,
        6
      ],
      "name": "f76f08554cdf484d8f097b5bcd697efd.obj.cleaner.materialmerger.gles"
    },
    {
      "mesh": 0,
      "name": ""
    },
    {
      "mesh": 1,
      "name": ""
    },
    {
      "mesh": 2,
      "name": ""
    },
    {
      "mesh": 3,
      "name": ""
    }
  ],
  "scene": 0,
  "scenes": [
    {
      "name": "OSG_Scene",
      "nodes": [
        0
      ]
    }
  ]
}

