{
  "accessors": [
    {
      "bufferView": 2,
      "componentType": 5126,
      "count": 615,
      "max": [
        2.583889961242676,
        3.1845500469207764,
        10.644379615783691
      ],
      "min": [
        -2.3921101093292236,
        -3.343549966812134,
        -9.754229545593262
      ],
      "type": "VEC3"
    },
    {
      "bufferView": 2,
      "byteOffset": 7380,
      "componentType": 5126,
      "count": 615,
      "max": [
        0.9995221495628357,
        0.9980211853981018,
        0.9972125887870789
      ],
      "min": [
        -0.9995221495628357,
        -0.9980211853981018,
        -0.9972125887870789
      ],
      "type": "VEC3"
    },
    {
      "bufferView": 1,
      "componentType": 5126,
      "count": 615,
      "max": [
        1.0,
        0.9805200099945068
      ],
      "min": [
        0.0,
        0.0
      ],
      "type": "VEC2"
    },
    {
      "bufferView": 0,
      "componentType": 5125,
      "count": 2880,
      "type": "SCALAR"
    },
    {
      "bufferView": 2,
      "byteOffset": 14760,
      "componentType": 5126,
      "count": 2421,
      "max": [
        0.2256300002336502,
        2.7335801124572754,
        0.6144899725914001
      ],
      "min": [
        -0.22806000709533691,
        -2.7335801124572754,
        -1.0067399740219116
      ],
      "type": "VEC3"
    },
    {
      "bufferView": 2,
      "byteOffset": 43812,
      "componentType": 5126,
      "count": 2421,
      "max": [
        0.9999991059303284,
        0.9874401092529297,
        0.997826874256134
      ],
      "min": [
        -0.9999933838844299,
        -0.9874401092529297,
        -0.9710317850112915
      ],
      "type": "VEC3"
    },
    {
      "bufferView": 1,
      "byteOffset": 4920,
      "componentType": 5126,
      "count": 2421,
      "max": [
        0.8902999758720398,
        0.5235700011253357
      ],
      "min": [
        0.10792999714612961,
        0.0012499999720603228
      ],
      "type": "VEC2"
    },
    {
      "bufferView": 0,
      "byteOffset": 11520,
      "componentType": 5125,
      "count": 14040,
      "type": "SCALAR"
    },
    {
      "bufferView": 2,
      "byteOffset": 72864,
      "componentType": 5126,
      "count": 614,
      "max": [
        2.6477200984954834,
        3.0954298973083496,
        10.624750137329102
      ],
      "min": [
        -2.5021300315856934,
        -3.359489917755127,
        -9.496879577636719
      ],
      "type": "VEC3"
    },
    {
      "bufferView": 2,
      "byteOffset": 80232,
      "componentType": 5126,
      "count": 614,
      "max": [
        0.9995037317276001,
        1.0,
        1.0
      ],
      "min": [
        -0.9995037317276001,
        -1.0,
        -1.0
      ],
      "type": "VEC3"
    },
    {
      "bufferView": 1,
      "byteOffset": 24288,
      "componentType": 5126,
      "count": 614,
      "max": [
        1.0,
        0.9909200072288513
      ],
      "min": [
        0.0,
        0.0
      ],
      "type": "VEC2"
    },
    {
      "bufferView": 0,
      "byteOffset": 67680,
      "componentType": 5125,
      "count": 2880,
      "type": "SCALAR"
    },
    {
      "bufferView": 2,
      "byteOffset": 87600,
      "componentType": 5126,
      "count": 6045,
      "max": [
        1.1015000343322754,
        1.0803600549697876,
        8.250570297241211
      ],
      "min": [
        -1.2969499826431274,
        -1.0803600549697876,
        -3.3556900024414063
      ],
      "type": "VEC3"
    },
    {
      "bufferView": 2,
      "byteOffset": 160140,
      "componentType": 5126,
      "count": 6045,
      "max": [
        0.9999980330467224,
        0.9999980330467224,
        1.0
      ],
      "min": [
        -0.9999895691871643,
        -0.9999980330467224,
        -1.0
      ],
      "type": "VEC3"
    },
    {
      "bufferView": 1,
      "byteOffset": 29200,
      "componentType": 5126,
      "count": 6045,
      "max": [
        0.9934200048446655,
        0.9869099855422974
      ],
      "min": [
        0.0,
        0.0
      ],
      "type": "VEC2"
    },
    {
      "bufferView": 0,
      "byteOffset": 79200,
      "componentType": 5125,
      "count": 28320,
      "type": "SCALAR"
    },
    {
      "bufferView": 2,
      "byteOffset": 232680,
      "componentType": 5126,
      "count": 8800,
      "max": [
        0.7177799940109253,
        0.7934399843215942,
        1.964229941368103
      ],
      "min": [
        -0.4742699861526489,
        -0.793429970741272,
        1.6236300468444824
      ],
      "type": "VEC3"
    },
    {
      "bufferView": 2,
      "byteOffset": 338280,
      "componentType": 5126,
      "count": 8800,
      "max": [
        0.9757975935935974,
        0.9993904232978821,
        1.0
      ],
      "min": [
        -0.9757975935935974,
        -0.9993904232978821,
        0.03491106256842613
      ],
      "type": "VEC3"
    },
    {
      "bufferView": 1,
      "byteOffset": 77560,
      "componentType": 5126,
      "count": 8800,
      "max": [
        1.0,
        1.0
      ],
      "min": [
        0.0,
        0.0
      ],
      "type": "VEC2"
    },
    {
      "bufferView": 0,
      "byteOffset": 192480,
      "componentType": 5125,
      "count": 33792,
      "type": "SCALAR"
    },
    {
      "bufferView": 2,
      "byteOffset": 443880,
      "componentType": 5126,
      "count": 1100,
      "max": [
        0.6069200038909912,
        0.7723100185394287,
        1.7127100229263306
      ],
      "min": [
        -0.35576000809669495,
        -0.7723100185394287,
        1.6776100397109985
      ],
      "type": "VEC3"
    },
    {
      "bufferView": 2,
      "byteOffset": 457080,
      "componentType": 5126,
      "count": 1100,
      "max": [
        0.8920223712921143,
        0.9975994229316711,
        1.0
      ],
      "min": [
        -0.8920223712921143,
        -0.9975994229316711,
        0.05274128168821335
      ],
      "type": "VEC3"
    },
    {
      "bufferView": 1,
      "byteOffset": 147960,
      "componentType": 5126,
      "count": 1100,
      "max": [
        0.876010000705719,
        0.8745200037956238
      ],
      "min": [
        0.3270399868488312,
        0.4289799928665161
      ],
      "type": "VEC2"
    },
    {
      "bufferView": 0,
      "byteOffset": 327648,
      "componentType": 5125,
      "count": 4224,
      "type": "SCALAR"
    }
  ],
  "asset": {
    "extras": {
      "author": "RegulusFen (https://sketchfab.com/RegulusFen)",
      "license": "CC-BY-4.0 (http://creativecommons.org/licenses/by/4.0/)",
      "source": "https://sketchfab.com/3d-models/sofa-f3647c3420a645589ad0a38a0fd7d0f5",
      "title": "Sofa"
    },
    "generator": "Sketchfab-10.63.0",
    "version": "2.0"
  },
  "bufferViews": [
    {
      "buffer": 0,
      "byteLength": 344544,
      "name": "floatBufferViews",
      "target": 34963
    },
    {
      "buffer": 0,
      "byteLength": 156760,
      "byteOffset": 344544,
      "byteStride": 8,
      "name": "floatBufferViews",
      "target": 34962
    },
    {
      "buffer": 0,
      "byteLength": 470280,
      "byteOffset": 501304,
      "byteStride": 12,
      "name": "floatBufferViews",
      "target": 34962
    }
  ],
  "buffers": [
    {
      "byteLength": 971584,
      "uri": "scene.bin"
    }
  ],
  "extensionsRequired": [
    "KHR_materials_pbrSpecularGlossiness"
  ],
  "extensionsUsed": [
    "KHR_materials_pbrSpecularGlossiness"
  ],
  "materials": [
    {
      "doubleSided": true,
      "extensions": {
        "KHR_materials_pbrSpecularGlossiness": {
          "diffuseFactor": [
            0.42124199697207376,
            0.42124199697207376,
            0.42124199697207376,
            1.0
          ],
          "glossinessFactor": 1.0,
          "specularFactor": [
            0.019950568192182112,
            0.019950568192182112,
            0.019950568192182112
          ]
        }
      },
      "name": "CHAISE.002"
    },
    {
      "doubleSided": true,
      "extensions": {
        "KHR_materials_pbrSpecularGlossiness": {
          "diffuseFactor": [
            0.4125742663815692,
            0.4125742663815692,
            0.4125742663815692,
            1.0
          ],
          "glossinessFactor": 1.0,
          "specularFactor": [
            0.0,
            0.0,
            0.0
          ]
        }
      },
      "name": "BUTTONS.002"
    },
    {
      "doubleSided": true,
      "extensions": {
        "KHR_materials_pbrSpecularGlossiness": {
          "diffuseFactor": [
            0.12856811131236873,
            0.12856811131236873,
            0.12856811131236873,
            1.0
          ],
          "glossinessFactor": 1.0,
          "specularFactor": [
            0.6705290966686731,
            0.6705290966686731,
            0.6705290966686731
          ]
        }
      },
      "name": "BakedCycles.001"
    },
    {
      "doubleSided": true,
      "extensions": {
        "KHR_materials_pbrSpecularGlossiness": {
          "diffuseFactor": [
            0.055417560391426354,
            0.055417560391426354,
            0.055417560391426354,
            1.0
          ],
          "glossinessFactor": 0.4,
          "specularFactor": [
            0.05,
            0.05,
            0.05
          ]
        }
      },
      "name": "BakedCycles.005"
    },
    {
      "doubleSided": true,
      "extensions": {
        "KHR_materials_pbrSpecularGlossiness": {
          "diffuseFactor": [
            0.652288577178678,
            0.652288577178678,
            0.652288577178678,
            1.0
          ],
          "glossinessFactor": 1.0,
          "specularFactor": [
            0.8227857543962835,
            0.552011401512,
            1.0
          ]
        }
      },
      "name": "BakedCycles.008"
    },
    {
      "doubleSided": true,
      "extensions": {
        "KHR_materials_pbrSpecularGlossiness": {
          "diffuseFactor": [
            0.472307320362618,
            0.472307320362618,
            0.472307320362618,
            1.0
          ],
          "glossinessFactor": 0.4,
          "specularFactor": [
            0.05,
            0.05,
            0.05
          ]
        }
      },
      "name": "BakedCycles.009"
    }
  ],
  "meshes": [
    {
      "name": "Icosphere.004_0",
      "primitives": [
        {
          "attributes": {
            "NORMAL": 1,
            "POSITION": 0,
            "TEXCOORD_0": 2
          },
          "indices": 3,
          "material": 5,
          "mode": 4
        }
      ]
    },
    {
      "name": "Icosphere.003_0",
      "primitives": [
        {
          "attributes": {
            "NORMAL": 5,
            "POSITION": 4,
            "TEXCOORD_0": 6
          },
          "indices": 7,
          "material": 4,
          "mode": 4
        }
      ]
    },
    {
      "name": "Icosphere.000_0",
      "primitives": [
        {
          "attributes": {
            "NORMAL": 9,
            "POSITION": 8,
            "TEXCOORD_0": 10
          },
          "indices": 11,
          "material": 3,
          "mode": 4
        }
      ]
    },
    {
      "name": "Cube.000_0",
      "primitives": [
        {
          "attributes": {
            "NORMAL": 13,
            "POSITION": 12,
            "TEXCOORD_0": 14
          },
          "indices": 15,
          "material": 0,
          "mode": 4
        }
      ]
    },
    {
      "name": "Cube.000_1",
      "primitives": [
        {
          "attributes": {
            "NORMAL": 17,
            "POSITION": 16,
            "TEXCOORD_0": 18
          },
          "indices": 19,
          "material": 1,
          "mode": 4
        }
      ]
    },
    {
      "name": "Cube.000_2",
      "primitives": [
        {
          "attributes": {
            "NORMAL": 21,
            "POSITION": 20,
            "TEXCOORD_0": 22
          },
          "indices": 23,
          "material": 2,
          "mode": 4
        }
      ]
    }
  ],
  "nodes": [
    {
      "children": [
        1
      ],
      "matrix": [
        1.0,
        0.0,
        0.0,
        0.0,
        0.0,
        2.220446049250313e-16,
        -1.0,
        0.0,
        0.0,
        1.0,
        2.220446049250313e-16,
        0.0,
        0.0,
        0.0,
        0.0,
        1.0
      ],
      "name": "Sketchfab_model"
    },
    {
      "children": [
        2,
        4,
        6,
        8
      ],
      "name": "Root"
    },
    {
      "children": [
        3
      ],
      "matrix": [
        -0.09787000000000003,
        -0.28230000000000005,
        -0.0004400000000000001,
        0.0,
        0.14861000000000002,
        -0.051130000000000016,
        -0.24921000000000004,
        0.0,
        0.10121000000000001,
        -0.035190000000000006,
        0.06757000000000002,
        0.0,
        -0.39949000000000007,
        1.68006,
        1.0222,
        1.0
      ],
      "name": "Icosphere.004"
    },
    {
      "mesh": 0,
      "name": "Icosphere.004_0"
    },
    {
      "children": [
        5
      ],
      "matrix": [
        0.0022100000000000006,
        -0.30197000000000007,
        0.0002500000000000001,
        0.0,
        0.3018200000000001,
        0.0022200000000000006,
        0.009470000000000003,
        0.0,
        -0.009470000000000003,
        0.00019000000000000006,
        0.30183000000000004,
        0.0,
        -0.91495,
        2.129,
        1.5576899999999998,
        1.0
      ],
      "name": "Icosphere.003"
    },
    {
      "mesh": 1,
      "name": "Icosphere.003_0"
    },
    {
      "children": [
        7
      ],
      "matrix": [
        -0.09086000000000002,
        -0.29213,
        0.0015000000000000005,
        0.0,
        0.15311000000000002,
        -0.048990000000000006,
        -0.26691000000000004,
        0.0,
        0.11927000000000003,
        -0.036710000000000007,
        0.07516000000000002,
        0.0,
        -0.39949000000000007,
        1.25429,
        1.06501,
        1.0
      ],
      "name": "Icosphere.000"
    },
    {
      "mesh": 2,
      "name": "Icosphere.000_0"
    },
    {
      "children": [
        9,
        10,
        11
      ],
      "matrix": [
        0.021710000000000004,
        -0.6592300000000001,
        0.0,
        0.0,
        1.9454899999999997,
        0.06408000000000001,
        0.0,
        0.0,
        0.0,
        0.0,
        0.15681000000000003,
        0.0,
        -0.40579,
        1.55523,
        0.50285,
        1.0
      ],
      "name": "Cube.000"
    },
    {
      "mesh": 3,
      "name": "Cube.000_0"
    },
    {
      "mesh": 4,
      "name": "Cube.000_1"
    },
    {
      "mesh": 5,
      "name": "Cube.000_2"
    }
  ],
  "scene": 0,
  "scenes": [
    {
      "name": "Sketchfab_Scene",
      "nodes": [
        0
      ]
    }
  ]
}
