{
  "accessors": [
    {
      "bufferView": 2,
      "componentType": 5126,
      "count": 20,
      "max": [
        75.459999084472656,
        19.956504821777344,
        100.18009948730469
      ],
      "min": [
        -75.460006713867188,
        -25.129240036010742,
        -54.928409576416016
      ],
      "type": "VEC3"
    },
    {
      "bufferView": 2,
      "byteOffset": 240,
      "componentType": 5126,
      "count": 20,
      "max": [
        0.99999994039535522,
        0,
        0
      ],
      "min": [
        -0.99999994039535522,
        -1,
        0
      ],
      "type": "VEC3"
    },
    {
      "bufferView": 1,
      "componentType": 5126,
      "count": 20,
      "max": [
        0.94188302755355835,
        0.61076998710632324
      ],
      "min": [
        0.56116300821304321,
        0.30826500058174133
      ],
      "type": "VEC2"
    },
    {
      "bufferView": 0,
      "componentType": 5125,
      "count": 30,
      "max": [
        19
      ],
      "min": [
        0
      ],
      "type": "SCALAR"
    },
    {
      "bufferView": 2,
      "byteOffset": 480,
      "componentType": 5126,
      "count": 186,
      "max": [
        76.999954223632812,
        30,
        102.5
      ],
      "min": [
        -77.000045776367188,
        -30,
        -102.5
      ],
      "type": "VEC3"
    },
    {
      "bufferView": 2,
      "byteOffset": 2712,
      "componentType": 5126,
      "count": 186,
      "max": [
        1,
        1,
        1
      ],
      "min": [
        -1,
        -1,
        -1
      ],
      "type": "VEC3"
    },
    {
      "bufferView": 1,
      "byteOffset": 160,
      "componentType": 5126,
      "count": 186,
      "max": [
        0.625,
        1
      ],
      "min": [
        -0.28430500626564026,
        0
      ],
      "type": "VEC2"
    },
    {
      "bufferView": 0,
      "byteOffset": 120,
      "componentType": 5125,
      "count": 474,
      "max": [
        185
      ],
      "min": [
        0
      ],
      "type": "SCALAR"
    },
    {
      "bufferView": 2,
      "byteOffset": 4944,
      "componentType": 5126,
      "count": 242,
      "max": [
        74.726387023925781,
        21.125696182250977,
        78.908302307128906
      ],
      "min": [
        42.552947998046875,
        -18.772960662841797,
        -23.836084365844727
      ],
      "type": "VEC3"
    },
    {
      "bufferView": 2,
      "byteOffset": 7848,
      "componentType": 5126,
      "count": 242,
      "max": [
        1,
        1,
        1
      ],
      "min": [
        -1,
        -1,
        -1
      ],
      "type": "VEC3"
    },
    {
      "bufferView": 1,
      "byteOffset": 1648,
      "componentType": 5126,
      "count": 242,
      "max": [
        0.875,
        1
      ],
      "min": [
        0.125,
        0
      ],
      "type": "VEC2"
    },
    {
      "bufferView": 0,
      "byteOffset": 2016,
      "componentType": 5125,
      "count": 624,
      "max": [
        241
      ],
      "min": [
        0
      ],
      "type": "SCALAR"
    },
    {
      "bufferView": 2,
      "byteOffset": 10752,
      "componentType": 5126,
      "count": 960,
      "max": [
        73.693443298339844,
        -28.08465576171875,
        39.452850341796875
      ],
      "min": [
        -73.693443298339844,
        -33.399673461914062,
        -80.36712646484375
      ],
      "type": "VEC3"
    },
    {
      "bufferView": 2,
      "byteOffset": 22272,
      "componentType": 5126,
      "count": 960,
      "max": [
        1,
        1,
        1
      ],
      "min": [
        -1,
        -1,
        -1
      ],
      "type": "VEC3"
    },
    {
      "bufferView": 1,
      "byteOffset": 3584,
      "componentType": 5126,
      "count": 960,
      "max": [
        0.875,
        1
      ],
      "min": [
        0.001686000032350421,
        0
      ],
      "type": "VEC2"
    },
    {
      "bufferView": 0,
      "byteOffset": 4512,
      "componentType": 5125,
      "count": 3096,
      "max": [
        959
      ],
      "min": [
        0
      ],
      "type": "SCALAR"
    },
    {
      "bufferView": 2,
      "byteOffset": 33792,
      "componentType": 5126,
      "count": 586,
      "max": [
        77,
        30,
        102.5
      ],
      "min": [
        -77.000045776367188,
        -30.011905670166016,
        -102.5
      ],
      "type": "VEC3"
    },
    {
      "bufferView": 2,
      "byteOffset": 40824,
      "componentType": 5126,
      "count": 586,
      "max": [
        1,
        1,
        1
      ],
      "min": [
        -1,
        -1,
        -1
      ],
      "type": "VEC3"
    },
    {
      "bufferView": 1,
      "byteOffset": 11264,
      "componentType": 5126,
      "count": 586,
      "max": [
        0.99800801277160645,
        0.99800801277160645
      ],
      "min": [
        0.001816999982111156,
        0.001740999985486269
      ],
      "type": "VEC2"
    },
    {
      "bufferView": 0,
      "byteOffset": 16896,
      "componentType": 5125,
      "count": 1404,
      "max": [
        585
      ],
      "min": [
        0
      ],
      "type": "SCALAR"
    },
    {
      "bufferView": 2,
      "byteOffset": 47856,
      "componentType": 5126,
      "count": 84,
      "max": [
        75.897354125976562,
        1,
        83.749649047851562
      ],
      "min": [
        -76.067703247070312,
        -1,
        81.749649047851562
      ],
      "type": "VEC3"
    },
    {
      "bufferView": 2,
      "byteOffset": 48864,
      "componentType": 5126,
      "count": 84,
      "max": [
        1,
        1,
        1
      ],
      "min": [
        -1,
        -1,
        -1
      ],
      "type": "VEC3"
    },
    {
      "bufferView": 1,
      "byteOffset": 15952,
      "componentType": 5126,
      "count": 84,
      "max": [
        0.65625,
        1
      ],
      "min": [
        0.34375,
        -0
      ],
      "type": "VEC2"
    },
    {
      "bufferView": 0,
      "byteOffset": 22512,
      "componentType": 5125,
      "count": 240,
      "max": [
        83
      ],
      "min": [
        0
      ],
      "type": "SCALAR"
    }
  ],
  "asset": {
    "extras": {
      "author": "subholax (https://sketchfab.com/subholax)",
      "license": "CC-BY-4.0 (http://creativecommons.org/licenses/by/4.0/)",
      "source": "https://sketchfab.com/3d-models/wardrobe-obj-00442dec7438488a94b88c229d4e5e0d",
      "title": "Wardrobe OBJ"
    },
    "generator": "Sketchfab-9.24.0",
    "version": "2.0"
  },
  "bufferViews": [
    {
      "buffer": 0,
      "byteLength": 23472,
      "byteOffset": 0,
      "name": "floatBufferViews",
      "target": 34963
    },
    {
      "buffer": 0,
      "byteLength": 16624,
      "byteOffset": 23472,
      "byteStride": 8,
      "name": "floatBufferViews",
      "target": 34962
    },
    {
      "buffer": 0,
      "byteLength": 49872,
      "byteOffset": 40096,
      "byteStride": 12,
      "name": "floatBufferViews",
      "target": 34962
    }
  ],
  "buffers": [
    {
      "byteLength": 89968,
      "uri": "scene.bin"
    }
  ],
  "materials": [
    {
      "doubleSided": true,
      "name": "mia_material_x1SG",
      "pbrMetallicRoughness": {
        "baseColorFactor": [
          1,
          1,
          1,
          1
        ],
        "metallicFactor": 0,
        "roughnessFactor": 0.59999999999999998
      }
    },
    {
      "doubleSided": true,
      "name": "mia_material_x3SG",
      "pbrMetallicRoughness": {
        "baseColorFactor": [
          1,
          1,
          1,
          1
        ],
        "metallicFactor": 0,
        "roughnessFactor": 0.59999999999999998
      }
    },
    {
      "doubleSided": true,
      "name": "mia_material_x4SG",
      "pbrMetallicRoughness": {
        "baseColorFactor": [
          1,
          1,
          1,
          1
        ],
        "metallicFactor": 0,
        "roughnessFactor": 0.59999999999999998
      }
    },
    {
      "doubleSided": true,
      "name": "mia_material_x8SG",
      "pbrMetallicRoughness": {
        "baseColorFactor": [
          1,
          1,
          1,
          1
        ],
        "metallicFactor": 0,
        "roughnessFactor": 0.59999999999999998
      }
    },
    {
      "doubleSided": true,
      "name": "mia_material_x9SG",
      "pbrMetallicRoughness": {
        "baseColorFactor": [
          1,
          1,
          1,
          1
        ],
        "metallicFactor": 0,
        "roughnessFactor": 0.59999999999999998
      }
    }
  ],
  "meshes": [
    {
      "primitives": [
        {
          "attributes": {
            "NORMAL": 1,
            "POSITION": 0,
            "TEXCOORD_0": 2
          },
          "indices": 3,
          "material": 3,
          "mode": 4
        }
      ]
    },
    {
      "primitives": [
        {
          "attributes": {
            "NORMAL": 5,
            "POSITION": 4,
            "TEXCOORD_0": 6
          },
          "indices": 7,
          "material": 0,
          "mode": 4
        }
      ]
    },
    {
      "primitives": [
        {
          "attributes": {
            "NORMAL": 9,
            "POSITION": 8,
            "TEXCOORD_0": 10
          },
          "indices": 11,
          "material": 1,
          "mode": 4
        }
      ]
    },
    {
      "primitives": [
        {
          "attributes": {
            "NORMAL": 13,
            "POSITION": 12,
            "TEXCOORD_0": 14
          },
          "indices": 15,
          "material": 2,
          "mode": 4
        }
      ]
    },
    {
      "primitives": [
        {
          "attributes": {
            "NORMAL": 17,
            "POSITION": 16,
            "TEXCOORD_0": 18
          },
          "indices": 19,
          "material": 3,
          "mode": 4
        }
      ]
    },
    {
      "primitives": [
        {
          "attributes": {
            "NORMAL": 21,
            "POSITION": 20,
            "TEXCOORD_0": 22
          },
          "indices": 23,
          "material": 4,
          "mode": 4
        }
      ]
    }
  ],
  "nodes": [
    {
      "children": [
        1
      ],
      "name": "RootNode (gltf orientation matrix)",
      "rotation": [
        -0.70710678118654746,
        -0,
        -0,
        0.70710678118654757
      ]
    },
    {
      "children": [
        2
      ],
      "name": "RootNode (model correction matrix)"
    },
    {
      "children": [
        3,
        4,
        5,
        6,
        7,
        8
      ],
      "name": "8814691e951e40ce898cebe7c89df486.obj.cleaner.materialmerger.gles"
    },
    {
      "mesh": 0,
      "name": ""
    },
    {
      "mesh": 1,
      "name": ""
    },
    {
      "mesh": 2,
      "name": ""
    },
    {
      "mesh": 3,
      "name": ""
    },
    {
      "mesh": 4,
      "name": ""
    },
    {
      "mesh": 5,
      "name": ""
    }
  ],
  "scene": 0,
  "scenes": [
    {
      "name": "OSG_Scene",
      "nodes": [
        0
      ]
    }
  ]
}

